%TF.GenerationSoftware,KiCad,Pcbnew,9.0.2+dfsg-1*%
%TF.CreationDate,2026-03-12T09:06:24-07:00*%
%TF.ProjectId,n64_pico_pak,6e36345f-7069-4636-9f5f-70616b2e6b69,A*%
%TF.SameCoordinates,Original*%
%TF.FileFunction,Copper,L2,Bot*%
%TF.FilePolarity,Positive*%
%FSLAX46Y46*%
G04 Gerber Fmt 4.6, Leading zero omitted, Abs format (unit mm)*
G04 Created by KiCad (PCBNEW 9.0.2+dfsg-1) date 2026-03-12 09:06:24*
%MOMM*%
%LPD*%
G01*
G04 APERTURE LIST*
%TA.AperFunction,ComponentPad*%
%ADD10C,4.000000*%
%TD*%
%TA.AperFunction,ComponentPad*%
%ADD11C,2.800000*%
%TD*%
%TA.AperFunction,ComponentPad*%
%ADD12R,1.800000X1.800000*%
%TD*%
%TA.AperFunction,ComponentPad*%
%ADD13C,1.800000*%
%TD*%
%TA.AperFunction,ComponentPad*%
%ADD14C,1.600000*%
%TD*%
%TA.AperFunction,ComponentPad*%
%ADD15C,1.524000*%
%TD*%
%TA.AperFunction,ViaPad*%
%ADD16C,0.500000*%
%TD*%
%TA.AperFunction,ViaPad*%
%ADD17C,0.600000*%
%TD*%
%TA.AperFunction,ViaPad*%
%ADD18C,0.700000*%
%TD*%
%TA.AperFunction,Conductor*%
%ADD19C,0.300000*%
%TD*%
%TA.AperFunction,Conductor*%
%ADD20C,0.400000*%
%TD*%
%TA.AperFunction,Conductor*%
%ADD21C,0.600000*%
%TD*%
%TA.AperFunction,Conductor*%
%ADD22C,0.200000*%
%TD*%
G04 APERTURE END LIST*
D10*
%TO.P,,1,Pin_1*%
%TO.N,GND*%
X219470000Y-147000000D03*
%TD*%
D11*
%TO.P,J2,1,Pin_1*%
%TO.N,+3.3V*%
X208280000Y-124900000D03*
%TO.P,J2,2,Pin_2*%
%TO.N,JOY_EE_DATA*%
X208280000Y-128900000D03*
%TO.P,J2,3,Pin_3*%
%TO.N,GND*%
X208280000Y-132900000D03*
%TD*%
D10*
%TO.P,,1,Pin_1*%
%TO.N,GND*%
X103450000Y-86500000D03*
%TD*%
D12*
%TO.P,D1,1,K*%
%TO.N,Net-(D1-K)*%
X123825000Y-140970000D03*
D13*
%TO.P,D1,2,A*%
%TO.N,+5V*%
X126365000Y-140970000D03*
%TD*%
D14*
%TO.P,R1,1*%
%TO.N,+3.3V*%
X171700000Y-107500000D03*
%TO.P,R1,2*%
%TO.N,JOY_EE_DATA*%
X181860000Y-107500000D03*
%TD*%
D10*
%TO.P,,1,Pin_1*%
%TO.N,GND*%
X103450000Y-141100000D03*
%TD*%
D15*
%TO.P,J1,1,GND*%
%TO.N,GND*%
X131770000Y-99060000D03*
%TO.P,J1,2,GND*%
X134270000Y-99060000D03*
%TO.P,J1,3,AD15*%
%TO.N,ADBUS_15*%
X136770000Y-99060000D03*
%TO.P,J1,4,AD14*%
%TO.N,ADBUS_14*%
X139270000Y-99060000D03*
%TO.P,J1,5,AD13*%
%TO.N,ADBUS_13*%
X141770000Y-99060000D03*
%TO.P,J1,6,GND*%
%TO.N,GND*%
X144270000Y-99060000D03*
%TO.P,J1,7,AD12*%
%TO.N,ADBUS_12*%
X146770000Y-99060000D03*
%TO.P,J1,8,/WRITE*%
%TO.N,WR_STROBE*%
X149270000Y-99060000D03*
%TO.P,J1,9,VCC*%
%TO.N,+3.3V*%
X151770000Y-99060000D03*
%TO.P,J1,10,/READ*%
%TO.N,RD_STROBE*%
X154270000Y-99060000D03*
%TO.P,J1,11,AD11*%
%TO.N,ADBUS_11*%
X156770000Y-99060000D03*
%TO.P,J1,12,AD10*%
%TO.N,ADBUS_10*%
X159270000Y-99060000D03*
%TO.P,J1,13,12V*%
%TO.N,unconnected-(J1-12V-Pad13)*%
X161770000Y-99060000D03*
%TO.P,J1,14,NC*%
%TO.N,unconnected-(J1-NC-Pad14)*%
X164270000Y-99060000D03*
%TO.P,J1,15,AD9*%
%TO.N,ADBUS_9*%
X166770000Y-99060000D03*
%TO.P,J1,16,AD8*%
%TO.N,ADBUS_8*%
X169270000Y-99060000D03*
%TO.P,J1,17,VCC*%
%TO.N,+3.3V*%
X171770000Y-99060000D03*
%TO.P,J1,18,CIC_to_PIF*%
%TO.N,unconnected-(J1-CIC_to_PIF-Pad18)*%
X174270000Y-99060000D03*
%TO.P,J1,19,EEPROM_CLK*%
%TO.N,EE_CLOCK*%
X176770000Y-99060000D03*
%TO.P,J1,20,RESET*%
%TO.N,SYSTEM_RESET*%
X179270000Y-99060000D03*
%TO.P,J1,21,EEPROM_DATA*%
%TO.N,JOY_EE_DATA*%
X181770000Y-99060000D03*
%TO.P,J1,22,GND*%
%TO.N,GND*%
X184270000Y-99060000D03*
%TO.P,J1,23,GND*%
X186770000Y-99060000D03*
%TO.P,J1,24,L_AUDIO*%
%TO.N,unconnected-(J1-L_AUDIO-Pad24)*%
X189270000Y-99060000D03*
%TO.P,J1,25,GND*%
%TO.N,GND*%
X191770000Y-99060000D03*
%TO.P,J1,26,GND*%
X131770000Y-94060000D03*
%TO.P,J1,27,GND*%
X134270000Y-94060000D03*
%TO.P,J1,28,AD0*%
%TO.N,ADBUS_0*%
X136770000Y-94060000D03*
%TO.P,J1,29,AD1*%
%TO.N,ADBUS_1*%
X139270000Y-94060000D03*
%TO.P,J1,30,AD2*%
%TO.N,ADBUS_2*%
X141770000Y-94060000D03*
%TO.P,J1,31,GND*%
%TO.N,GND*%
X144270000Y-94060000D03*
%TO.P,J1,32,AD3*%
%TO.N,ADBUS_3*%
X146770000Y-94060000D03*
%TO.P,J1,33,ALE_L*%
%TO.N,ALE_L*%
X149270000Y-94060000D03*
%TO.P,J1,34,VCC*%
%TO.N,+3.3V*%
X151770000Y-94060000D03*
%TO.P,J1,35,ALE_H*%
%TO.N,ALE_H*%
X154270000Y-94060000D03*
%TO.P,J1,36,AD4*%
%TO.N,ADBUS_4*%
X156770000Y-94060000D03*
%TO.P,J1,37,AD5*%
%TO.N,ADBUS_5*%
X159270000Y-94060000D03*
%TO.P,J1,38,12V*%
%TO.N,unconnected-(J1-12V-Pad38)*%
X161770000Y-94060000D03*
%TO.P,J1,39,NC*%
%TO.N,unconnected-(J1-NC-Pad39)*%
X164270000Y-94060000D03*
%TO.P,J1,40,AD6*%
%TO.N,ADBUS_6*%
X166770000Y-94060000D03*
%TO.P,J1,41,AD7*%
%TO.N,ADBUS_7*%
X169270000Y-94060000D03*
%TO.P,J1,42,VCC*%
%TO.N,+3.3V*%
X171770000Y-94060000D03*
%TO.P,J1,43,PIF_to_CIC*%
%TO.N,unconnected-(J1-PIF_to_CIC-Pad43)*%
X174270000Y-94060000D03*
%TO.P,J1,44,R4300_CLK*%
%TO.N,unconnected-(J1-R4300_CLK-Pad44)*%
X176770000Y-94060000D03*
%TO.P,J1,45,NMI*%
%TO.N,unconnected-(J1-NMI-Pad45)*%
X179270000Y-94060000D03*
%TO.P,J1,46,Video_CLK*%
%TO.N,unconnected-(J1-Video_CLK-Pad46)*%
X181770000Y-94060000D03*
%TO.P,J1,47,GND*%
%TO.N,GND*%
X184270000Y-94060000D03*
%TO.P,J1,48,GND*%
X186770000Y-94060000D03*
%TO.P,J1,49,R_Audio*%
%TO.N,unconnected-(J1-R_Audio-Pad49)*%
X189270000Y-94060000D03*
%TO.P,J1,50,GND*%
%TO.N,GND*%
X191770000Y-94060000D03*
%TD*%
D10*
%TO.P,,1,Pin_1*%
%TO.N,GND*%
X219470000Y-86500000D03*
%TD*%
D14*
%TO.P,R2,1*%
%TO.N,GND*%
X110490000Y-140970000D03*
%TO.P,R2,2*%
%TO.N,Net-(D1-K)*%
X120650000Y-140970000D03*
%TD*%
D16*
%TO.N,ADBUS_8*%
X158750000Y-111760000D03*
D17*
%TO.N,ADBUS_7*%
X119380000Y-133350000D03*
X167418969Y-95861031D03*
D16*
X114935000Y-99695000D03*
D17*
%TO.N,GND*%
X170180000Y-100965000D03*
X140335000Y-116840000D03*
X164465000Y-111125000D03*
X133350000Y-92075000D03*
X179705000Y-104775000D03*
X177800000Y-132080000D03*
X120015000Y-120650000D03*
X146050000Y-131445000D03*
X172720000Y-120650000D03*
X118110000Y-112395000D03*
X177165000Y-111760000D03*
X182880000Y-134620000D03*
X120650000Y-102870000D03*
X147700000Y-119000000D03*
X172720000Y-134620000D03*
X132715000Y-116840000D03*
X142875000Y-114300000D03*
X167640000Y-139700000D03*
X133350000Y-90805000D03*
X120015000Y-125095000D03*
X170180000Y-139700000D03*
X114935000Y-116205000D03*
X133350000Y-138430000D03*
X176530000Y-96520000D03*
X177165000Y-114300000D03*
X118110000Y-105410000D03*
X104140000Y-125730000D03*
X175260000Y-142240000D03*
X168275000Y-108585000D03*
X182880000Y-142240000D03*
X181610000Y-96520000D03*
X179705000Y-114300000D03*
X140335000Y-92075000D03*
X167640000Y-137160000D03*
X126365000Y-132080000D03*
X142875000Y-92075000D03*
X165100000Y-142240000D03*
X120650000Y-112395000D03*
X135255000Y-116840000D03*
X131445000Y-102870000D03*
X125730000Y-100330000D03*
X125730000Y-102870000D03*
X170180000Y-134620000D03*
X182880000Y-139700000D03*
X172720000Y-125730000D03*
X120650000Y-105410000D03*
X158115000Y-90170000D03*
X175260000Y-134620000D03*
X104775000Y-112395000D03*
X170180000Y-95885000D03*
X132715000Y-119380000D03*
X186690000Y-96520000D03*
X130810000Y-138430000D03*
X174625000Y-114300000D03*
X125095000Y-125095000D03*
X177800000Y-134620000D03*
X145415000Y-92075000D03*
X162560000Y-106045000D03*
X125095000Y-123190000D03*
X174625000Y-111760000D03*
X117475000Y-118110000D03*
X131445000Y-131445000D03*
X128270000Y-105410000D03*
X182880000Y-132080000D03*
X121285000Y-135890000D03*
X154305000Y-88265000D03*
X122555000Y-120650000D03*
X128905000Y-93980000D03*
X118400000Y-131345000D03*
X172720000Y-139700000D03*
X161290000Y-120650000D03*
X174625000Y-116840000D03*
X117475000Y-116205000D03*
X180340000Y-137160000D03*
X122555000Y-125095000D03*
X145415000Y-119380000D03*
X133985000Y-102870000D03*
X161925000Y-113665000D03*
X172720000Y-129540000D03*
X182880000Y-137160000D03*
X132080000Y-90805000D03*
X167005000Y-116205000D03*
X164465000Y-113665000D03*
X105410000Y-123190000D03*
X165100000Y-132080000D03*
X184150000Y-96520000D03*
X140335000Y-121920000D03*
X130810000Y-135890000D03*
X167640000Y-134620000D03*
X182880000Y-129540000D03*
X142875000Y-119380000D03*
X125730000Y-105410000D03*
X173355000Y-100330000D03*
X118110000Y-100330000D03*
X136525000Y-102870000D03*
X132715000Y-114300000D03*
X189230000Y-96520000D03*
X180340000Y-134620000D03*
X144145000Y-131445000D03*
X118110000Y-102870000D03*
X172720000Y-142240000D03*
X105410000Y-131445000D03*
X169545000Y-116205000D03*
X175260000Y-123190000D03*
X180340000Y-142240000D03*
X175260000Y-139700000D03*
X127000000Y-120650000D03*
X165100000Y-134620000D03*
X172720000Y-137160000D03*
X175260000Y-132080000D03*
X145415000Y-114300000D03*
X149225000Y-88265000D03*
X169545000Y-111125000D03*
X145415000Y-116840000D03*
X131445000Y-104775000D03*
X165100000Y-129540000D03*
X167640000Y-132080000D03*
X165100000Y-139700000D03*
X170180000Y-129540000D03*
X167640000Y-129540000D03*
X166370000Y-120650000D03*
X135255000Y-114300000D03*
X164465000Y-116205000D03*
X142875000Y-116840000D03*
X106045000Y-114935000D03*
X170180000Y-142240000D03*
X117475000Y-123190000D03*
X147955000Y-92075000D03*
X180340000Y-132080000D03*
X169545000Y-113665000D03*
X137795000Y-116840000D03*
X168910000Y-88900000D03*
X137795000Y-114300000D03*
X160655000Y-107315000D03*
X161925000Y-116205000D03*
X179705000Y-116840000D03*
X123190000Y-105410000D03*
X133350000Y-131445000D03*
X133350000Y-135890000D03*
X125095000Y-120650000D03*
X117475000Y-120650000D03*
X128270000Y-102870000D03*
X132715000Y-121920000D03*
X135255000Y-121920000D03*
X113030000Y-112395000D03*
X151765000Y-86995000D03*
X165735000Y-108585000D03*
X161925000Y-111125000D03*
X146050000Y-106680000D03*
X122555000Y-123190000D03*
X144145000Y-106680000D03*
X165100000Y-137160000D03*
X177800000Y-142240000D03*
X174625000Y-88900000D03*
X180340000Y-139700000D03*
X171450000Y-86995000D03*
X135255000Y-119380000D03*
X170180000Y-132080000D03*
X175260000Y-100965000D03*
X165735000Y-118110000D03*
X130175000Y-93345000D03*
X115570000Y-112395000D03*
X175260000Y-129540000D03*
X127000000Y-125095000D03*
X120650000Y-100330000D03*
X177800000Y-137160000D03*
X132080000Y-92075000D03*
X137795000Y-119380000D03*
X179705000Y-111760000D03*
X120015000Y-123190000D03*
X167005000Y-111125000D03*
X172720000Y-132080000D03*
X114935000Y-118110000D03*
X115570000Y-132080000D03*
X140335000Y-114300000D03*
X127000000Y-123190000D03*
X177800000Y-139700000D03*
X167640000Y-142240000D03*
X177800000Y-129540000D03*
X134620000Y-90805000D03*
X123190000Y-100330000D03*
X167005000Y-113665000D03*
X134620000Y-92075000D03*
X127635000Y-135890000D03*
X123190000Y-112395000D03*
X175260000Y-137160000D03*
X128270000Y-100330000D03*
X123190000Y-102870000D03*
X137795000Y-121920000D03*
X179070000Y-96520000D03*
X170180000Y-137160000D03*
X169545000Y-102235000D03*
X117475000Y-125095000D03*
X142875000Y-121920000D03*
X140335000Y-119380000D03*
X180340000Y-129540000D03*
X145415000Y-121920000D03*
X120650000Y-131000000D03*
X163830000Y-118110000D03*
X177165000Y-116840000D03*
X124460000Y-135890000D03*
%TO.N,ADBUS_5*%
X114935000Y-135255000D03*
X151765000Y-97155000D03*
X147320000Y-97155000D03*
%TO.N,WR_STROBE*%
X151792816Y-106176000D03*
X149542500Y-103822500D03*
D18*
%TO.N,JOY_EE_DATA*%
X135255000Y-105410000D03*
X160020000Y-111125000D03*
D16*
%TO.N,ADBUS_9*%
X158115000Y-113030000D03*
D17*
%TO.N,ALE_H*%
X150495000Y-97790000D03*
D16*
%TO.N,ADBUS_13*%
X155575000Y-118110000D03*
D17*
%TO.N,ADBUS_1*%
X105624942Y-133985000D03*
D16*
%TO.N,ADBUS_11*%
X156845000Y-115570000D03*
X156680000Y-102680000D03*
D17*
%TO.N,ADBUS_3*%
X108750003Y-133350000D03*
%TO.N,ADBUS_0*%
X102870000Y-132715000D03*
D16*
X130175000Y-90170000D03*
X136525000Y-90170000D03*
%TO.N,ADBUS_14*%
X154940000Y-119380000D03*
%TO.N,ADBUS_10*%
X158880000Y-102200000D03*
X157480000Y-114300000D03*
D17*
%TO.N,EE_CLOCK*%
X173990000Y-104140000D03*
%TO.N,ADBUS_2*%
X107315000Y-133985000D03*
D16*
X111125000Y-97155000D03*
D17*
%TO.N,ALE_L*%
X147955000Y-97790000D03*
%TO.N,+5V*%
X160655000Y-123825000D03*
X139065000Y-124460000D03*
D16*
%TO.N,ADBUS_4*%
X148590000Y-90170000D03*
X110424000Y-100899000D03*
D17*
X109855000Y-133985000D03*
D16*
X156680000Y-90170000D03*
%TO.N,ADBUS_15*%
X153987500Y-120332500D03*
%TO.N,ADBUS_12*%
X156210000Y-116840000D03*
%TO.N,ADBUS_6*%
X111760000Y-102870000D03*
D17*
X116840000Y-134620000D03*
%TD*%
D19*
%TO.N,ADBUS_8*%
X161925000Y-102235000D02*
X160655000Y-103505000D01*
X157979000Y-110989000D02*
X158750000Y-111760000D01*
X168275000Y-102235000D02*
X161925000Y-102235000D01*
X157979000Y-106181000D02*
X157979000Y-109220000D01*
X157979000Y-109220000D02*
X157979000Y-110989000D01*
X160655000Y-103505000D02*
X157979000Y-106181000D01*
X169270000Y-99060000D02*
X169270000Y-101240000D01*
X169270000Y-101240000D02*
X168275000Y-102235000D01*
%TO.N,ADBUS_7*%
X119380000Y-133350000D02*
X113030000Y-133350000D01*
X114935000Y-101464000D02*
X114935000Y-99695000D01*
X113030000Y-133350000D02*
X112395000Y-132715000D01*
X112395000Y-132715000D02*
X112395000Y-130380116D01*
X111624000Y-104775000D02*
X114935000Y-101464000D01*
X167418969Y-95861031D02*
X169180000Y-94100000D01*
X111624000Y-129609116D02*
X111624000Y-104775000D01*
D20*
X112395000Y-130380116D02*
X111624000Y-129609116D01*
D19*
%TO.N,ADBUS_5*%
X114935000Y-135255000D02*
X114232000Y-134552000D01*
X114232000Y-134552000D02*
X112532116Y-134552000D01*
X152534000Y-96386000D02*
X151765000Y-97155000D01*
X110422000Y-130107000D02*
X110422000Y-102303000D01*
X115570000Y-97155000D02*
X147320000Y-97155000D01*
X159270000Y-94060000D02*
X156944000Y-96386000D01*
X111193000Y-130878000D02*
X110422000Y-130107000D01*
X110422000Y-102303000D02*
X115570000Y-97155000D01*
X112532116Y-134552000D02*
X111193000Y-133212884D01*
X156944000Y-96386000D02*
X152534000Y-96386000D01*
X111193000Y-133212884D02*
X111193000Y-130878000D01*
D20*
%TO.N,WR_STROBE*%
X149542500Y-103822500D02*
X151765000Y-106045000D01*
X151765000Y-106045000D02*
X151765000Y-106148184D01*
X151765000Y-106148184D02*
X151792816Y-106176000D01*
D21*
%TO.N,JOY_EE_DATA*%
X181770000Y-99060000D02*
X181770000Y-107410000D01*
X135255000Y-105410000D02*
X149225000Y-105410000D01*
X152238500Y-108423500D02*
X152238500Y-119853500D01*
X149225000Y-105410000D02*
X151130000Y-107315000D01*
X181860000Y-107500000D02*
X181860000Y-120900000D01*
X151130000Y-107315000D02*
X152238500Y-108423500D01*
X154595364Y-121351000D02*
X160020000Y-115926364D01*
X181860000Y-120900000D02*
X189900000Y-128940000D01*
X153736000Y-121351000D02*
X154595364Y-121351000D01*
X160020000Y-115926364D02*
X160020000Y-111125000D01*
D22*
X181770000Y-107410000D02*
X181860000Y-107500000D01*
D21*
X189940000Y-128900000D02*
X208280000Y-128900000D01*
X152238500Y-119853500D02*
X153736000Y-121351000D01*
D20*
X189900000Y-128940000D02*
X189940000Y-128900000D01*
D19*
%TO.N,ADBUS_9*%
X159385000Y-103505000D02*
X161925000Y-100965000D01*
X165735000Y-100965000D02*
X166770000Y-99930000D01*
X159385000Y-103505000D02*
X157378000Y-105512000D01*
X161925000Y-100965000D02*
X165735000Y-100965000D01*
X157378000Y-112293000D02*
X158115000Y-113030000D01*
X166770000Y-99930000D02*
X166770000Y-99060000D01*
X157378000Y-105512000D02*
X157378000Y-109855000D01*
X157378000Y-109855000D02*
X157378000Y-112293000D01*
D20*
%TO.N,ALE_H*%
X154270000Y-94060000D02*
X153080000Y-95250000D01*
X151130000Y-95885000D02*
X150495000Y-96520000D01*
X153080000Y-95250000D02*
X152400000Y-95250000D01*
X151765000Y-95885000D02*
X151130000Y-95885000D01*
X150495000Y-96520000D02*
X150495000Y-97790000D01*
X152400000Y-95250000D02*
X151765000Y-95885000D01*
D19*
%TO.N,ADBUS_13*%
X152400000Y-101600000D02*
X153035000Y-102235000D01*
X153035000Y-102235000D02*
X154940000Y-104140000D01*
X154940000Y-106680000D02*
X154940000Y-115570000D01*
X154940000Y-115570000D02*
X154940000Y-117475000D01*
X154940000Y-104140000D02*
X154940000Y-106680000D01*
X142240000Y-101600000D02*
X152400000Y-101600000D01*
X141770000Y-101130000D02*
X142240000Y-101600000D01*
X141770000Y-99060000D02*
X141770000Y-101130000D01*
X154940000Y-117475000D02*
X155575000Y-118110000D01*
%TO.N,ADBUS_1*%
X108692471Y-96627471D02*
X107916000Y-97403942D01*
X112395000Y-95261511D02*
X110058431Y-95261511D01*
X138018489Y-95261511D02*
X139180000Y-94100000D01*
X107916000Y-131693942D02*
X105624942Y-133985000D01*
X107916000Y-99060000D02*
X107916000Y-104741000D01*
X107916000Y-97403942D02*
X107916000Y-99060000D01*
X107916000Y-104741000D02*
X107916000Y-131693942D01*
X114935000Y-95261511D02*
X112395000Y-95261511D01*
X110058431Y-95261511D02*
X108692471Y-96627471D01*
X114935000Y-95261511D02*
X138018489Y-95261511D01*
%TO.N,ADBUS_11*%
X156176000Y-113030000D02*
X156176000Y-114901000D01*
X156176000Y-103184000D02*
X156176000Y-113030000D01*
X156176000Y-114901000D02*
X156845000Y-115570000D01*
X156680000Y-102680000D02*
X156176000Y-103184000D01*
%TO.N,ADBUS_3*%
X109220000Y-132880003D02*
X109220000Y-100051364D01*
X112751364Y-96520000D02*
X144310000Y-96520000D01*
D20*
X108750003Y-133350000D02*
X109220000Y-132880003D01*
D19*
X109220000Y-100051364D02*
X112751364Y-96520000D01*
X144310000Y-96520000D02*
X146770000Y-94060000D01*
%TO.N,ADBUS_0*%
X136770000Y-94060000D02*
X136770000Y-90415000D01*
X107315000Y-97155000D02*
X107315000Y-131445000D01*
X125538978Y-94660511D02*
X109809489Y-94660511D01*
X106045000Y-132715000D02*
X102870000Y-132715000D01*
X107315000Y-131445000D02*
X106045000Y-132715000D01*
X130029489Y-90170000D02*
X125538978Y-94660511D01*
X136770000Y-90415000D02*
X136525000Y-90170000D01*
X109809489Y-94660511D02*
X107315000Y-97155000D01*
X130175000Y-90170000D02*
X130029489Y-90170000D01*
%TO.N,ADBUS_14*%
X151765000Y-102235000D02*
X152400000Y-102870000D01*
X147320000Y-102235000D02*
X151765000Y-102235000D01*
X140970000Y-102235000D02*
X147320000Y-102235000D01*
X154305000Y-104775000D02*
X154305000Y-106680000D01*
X139270000Y-100535000D02*
X140335000Y-101600000D01*
X152400000Y-102870000D02*
X154305000Y-104775000D01*
X154305000Y-116205000D02*
X154305000Y-118745000D01*
X139270000Y-99060000D02*
X139270000Y-100535000D01*
X154305000Y-118745000D02*
X154940000Y-119380000D01*
X154305000Y-106680000D02*
X154305000Y-116205000D01*
X140335000Y-101600000D02*
X140970000Y-102235000D01*
%TO.N,ADBUS_10*%
X158880000Y-102200000D02*
X158162500Y-102917500D01*
X156777000Y-104303000D02*
X156777000Y-111125000D01*
X156777000Y-111125000D02*
X156777000Y-113597000D01*
X156777000Y-113597000D02*
X157480000Y-114300000D01*
X158162500Y-102917500D02*
X156777000Y-104303000D01*
D20*
%TO.N,EE_CLOCK*%
X176770000Y-101360000D02*
X176770000Y-99060000D01*
X173990000Y-104140000D02*
X176770000Y-101360000D01*
D19*
%TO.N,ADBUS_2*%
X108585000Y-99695000D02*
X111125000Y-97155000D01*
D20*
X107950000Y-132715000D02*
X108585000Y-132080000D01*
D19*
X108585000Y-132080000D02*
X108585000Y-99695000D01*
X107950000Y-133350000D02*
X107950000Y-132715000D01*
X107315000Y-133985000D02*
X107950000Y-133350000D01*
D20*
%TO.N,ALE_L*%
X148907500Y-96837500D02*
X147955000Y-97790000D01*
X149270000Y-96475000D02*
X148907500Y-96837500D01*
X149270000Y-94060000D02*
X149270000Y-96475000D01*
D21*
%TO.N,+5V*%
X158029000Y-126451000D02*
X141056000Y-126451000D01*
X160655000Y-123825000D02*
X158029000Y-126451000D01*
X141056000Y-126451000D02*
X139065000Y-124460000D01*
D19*
%TO.N,ADBUS_4*%
X110424000Y-100899000D02*
X109821000Y-101502000D01*
X109821000Y-101502000D02*
X109821000Y-131445000D01*
X109855000Y-131479000D02*
X109855000Y-133985000D01*
X156680000Y-90170000D02*
X148590000Y-90170000D01*
X109821000Y-131445000D02*
X109855000Y-131479000D01*
%TO.N,ADBUS_15*%
X153670000Y-105410000D02*
X151164000Y-102904000D01*
X153670000Y-120015000D02*
X153670000Y-105410000D01*
X153987500Y-120332500D02*
X153670000Y-120015000D01*
X140614000Y-102904000D02*
X136770000Y-99060000D01*
X151164000Y-102904000D02*
X140614000Y-102904000D01*
%TO.N,ADBUS_12*%
X155575000Y-116205000D02*
X156210000Y-116840000D01*
X155575000Y-103505000D02*
X155575000Y-114300000D01*
X146770000Y-99060000D02*
X146770000Y-100415000D01*
X155575000Y-114300000D02*
X155575000Y-116205000D01*
X153035000Y-100965000D02*
X154305000Y-102235000D01*
X147320000Y-100965000D02*
X153035000Y-100965000D01*
X146770000Y-100415000D02*
X147320000Y-100965000D01*
X154305000Y-102235000D02*
X155575000Y-103505000D01*
%TO.N,ADBUS_6*%
X111023000Y-103607000D02*
X111760000Y-102870000D01*
X116171000Y-133951000D02*
X112781058Y-133951000D01*
X111794000Y-130629058D02*
X111023000Y-129858058D01*
X112781058Y-133951000D02*
X111794000Y-132963942D01*
X111023000Y-129858058D02*
X111023000Y-103607000D01*
X116840000Y-134620000D02*
X116171000Y-133951000D01*
X111794000Y-132963942D02*
X111794000Y-130629058D01*
D21*
%TO.N,+3.3V*%
X171770000Y-92395000D02*
X171770000Y-94060000D01*
X171450000Y-92075000D02*
X171770000Y-92395000D01*
X151770000Y-92705000D02*
X152400000Y-92075000D01*
D22*
X171770000Y-107430000D02*
X171700000Y-107500000D01*
D21*
X171680000Y-97220000D02*
X171680000Y-99100000D01*
X171680000Y-94100000D02*
X171680000Y-97220000D01*
X153560000Y-97220000D02*
X171680000Y-97220000D01*
X151770000Y-94060000D02*
X151770000Y-92705000D01*
X171770000Y-99060000D02*
X171770000Y-107430000D01*
X152400000Y-92075000D02*
X171450000Y-92075000D01*
X151680000Y-99100000D02*
X153560000Y-97220000D01*
%TD*%
%TA.AperFunction,Conductor*%
%TO.N,GND*%
G36*
X143889000Y-99110160D02*
G01*
X143914964Y-99207061D01*
X143965124Y-99293940D01*
X144036060Y-99364876D01*
X144122939Y-99415036D01*
X144219840Y-99441000D01*
X144248210Y-99441000D01*
X143568831Y-100120377D01*
X143604373Y-100146199D01*
X143782487Y-100236953D01*
X143782493Y-100236956D01*
X143972604Y-100298726D01*
X143972600Y-100298726D01*
X144170052Y-100330000D01*
X144369948Y-100330000D01*
X144567397Y-100298726D01*
X144757506Y-100236956D01*
X144757512Y-100236953D01*
X144935626Y-100146200D01*
X144971166Y-100120377D01*
X144291790Y-99441000D01*
X144320160Y-99441000D01*
X144417061Y-99415036D01*
X144503940Y-99364876D01*
X144574876Y-99293940D01*
X144625036Y-99207061D01*
X144651000Y-99110160D01*
X144651000Y-99081789D01*
X145330377Y-99761166D01*
X145356201Y-99725624D01*
X145356202Y-99725623D01*
X145407452Y-99625039D01*
X145456200Y-99573423D01*
X145525115Y-99556357D01*
X145592316Y-99579257D01*
X145631984Y-99625036D01*
X145683371Y-99725887D01*
X145800917Y-99887675D01*
X145800919Y-99887677D01*
X145800921Y-99887680D01*
X145942319Y-100029078D01*
X145942322Y-100029080D01*
X145942325Y-100029083D01*
X146055662Y-100111427D01*
X146059561Y-100114260D01*
X146102915Y-100170482D01*
X146111500Y-100216196D01*
X146111500Y-100479860D01*
X146136806Y-100607077D01*
X146136807Y-100607080D01*
X146186445Y-100726917D01*
X146186445Y-100726918D01*
X146198860Y-100745497D01*
X146220076Y-100813249D01*
X146201294Y-100881717D01*
X146148477Y-100929160D01*
X146094096Y-100941500D01*
X142564950Y-100941500D01*
X142535029Y-100932714D01*
X142504559Y-100926085D01*
X142499466Y-100922272D01*
X142496829Y-100921498D01*
X142475850Y-100904591D01*
X142465400Y-100894140D01*
X142431378Y-100831826D01*
X142428500Y-100805049D01*
X142428500Y-100216196D01*
X142448502Y-100148075D01*
X142480439Y-100114260D01*
X142484338Y-100111427D01*
X142597675Y-100029083D01*
X142616568Y-100010190D01*
X142643499Y-99983260D01*
X142739078Y-99887680D01*
X142739083Y-99887675D01*
X142856629Y-99725887D01*
X142908015Y-99625036D01*
X142956761Y-99573423D01*
X143025676Y-99556357D01*
X143092877Y-99579257D01*
X143132546Y-99625037D01*
X143183797Y-99725622D01*
X143209622Y-99761166D01*
X143889000Y-99081788D01*
X143889000Y-99110160D01*
G37*
%TD.AperFunction*%
%TA.AperFunction,Conductor*%
G36*
X133515295Y-97833502D02*
G01*
X133561788Y-97887158D01*
X133572786Y-97949386D01*
X133568832Y-97999623D01*
X134248209Y-98679000D01*
X134219840Y-98679000D01*
X134122939Y-98704964D01*
X134036060Y-98755124D01*
X133965124Y-98826060D01*
X133914964Y-98912939D01*
X133889000Y-99009840D01*
X133889000Y-99038209D01*
X133209623Y-98358832D01*
X133209622Y-98358832D01*
X133183799Y-98394375D01*
X133183798Y-98394376D01*
X133132267Y-98495512D01*
X133083518Y-98547127D01*
X133014603Y-98564193D01*
X132947402Y-98541292D01*
X132907733Y-98495512D01*
X132856199Y-98394373D01*
X132830377Y-98358831D01*
X132151000Y-99038208D01*
X132151000Y-99009840D01*
X132125036Y-98912939D01*
X132074876Y-98826060D01*
X132003940Y-98755124D01*
X131917061Y-98704964D01*
X131820160Y-98679000D01*
X131791790Y-98679000D01*
X132471166Y-97999622D01*
X132467213Y-97949386D01*
X132481809Y-97879906D01*
X132531652Y-97829346D01*
X132592825Y-97813500D01*
X133447174Y-97813500D01*
X133515295Y-97833502D01*
G37*
%TD.AperFunction*%
%TA.AperFunction,Conductor*%
G36*
X143515295Y-97833502D02*
G01*
X143561788Y-97887158D01*
X143572786Y-97949386D01*
X143568832Y-97999623D01*
X144248209Y-98679000D01*
X144219840Y-98679000D01*
X144122939Y-98704964D01*
X144036060Y-98755124D01*
X143965124Y-98826060D01*
X143914964Y-98912939D01*
X143889000Y-99009840D01*
X143889000Y-99038209D01*
X143209623Y-98358832D01*
X143209622Y-98358832D01*
X143183799Y-98394375D01*
X143183795Y-98394381D01*
X143132546Y-98494962D01*
X143083798Y-98546577D01*
X143014883Y-98563642D01*
X142947681Y-98540741D01*
X142908015Y-98494963D01*
X142856629Y-98394113D01*
X142739083Y-98232325D01*
X142739080Y-98232322D01*
X142739078Y-98232319D01*
X142597680Y-98090921D01*
X142597677Y-98090919D01*
X142597675Y-98090917D01*
X142529569Y-98041435D01*
X142486216Y-97985214D01*
X142480141Y-97914478D01*
X142513272Y-97851686D01*
X142575092Y-97816774D01*
X142603631Y-97813500D01*
X143447174Y-97813500D01*
X143515295Y-97833502D01*
G37*
%TD.AperFunction*%
%TA.AperFunction,Conductor*%
G36*
X136004490Y-97833502D02*
G01*
X136050983Y-97887158D01*
X136061087Y-97957432D01*
X136031593Y-98022012D01*
X136010430Y-98041436D01*
X135942322Y-98090919D01*
X135942319Y-98090921D01*
X135800921Y-98232319D01*
X135800919Y-98232322D01*
X135683371Y-98394112D01*
X135631985Y-98494962D01*
X135583237Y-98546576D01*
X135514322Y-98563642D01*
X135447121Y-98540741D01*
X135407452Y-98494961D01*
X135356199Y-98394373D01*
X135330377Y-98358831D01*
X134651000Y-99038208D01*
X134651000Y-99009840D01*
X134625036Y-98912939D01*
X134574876Y-98826060D01*
X134503940Y-98755124D01*
X134417061Y-98704964D01*
X134320160Y-98679000D01*
X134291790Y-98679000D01*
X134971166Y-97999622D01*
X134967213Y-97949386D01*
X134981809Y-97879906D01*
X135031652Y-97829346D01*
X135092825Y-97813500D01*
X135936369Y-97813500D01*
X136004490Y-97833502D01*
G37*
%TD.AperFunction*%
%TA.AperFunction,Conductor*%
G36*
X146004490Y-97833502D02*
G01*
X146050983Y-97887158D01*
X146061087Y-97957432D01*
X146031593Y-98022012D01*
X146010430Y-98041436D01*
X145942322Y-98090919D01*
X145942319Y-98090921D01*
X145800921Y-98232319D01*
X145800919Y-98232322D01*
X145683371Y-98394112D01*
X145631985Y-98494962D01*
X145583237Y-98546576D01*
X145514322Y-98563642D01*
X145447121Y-98540741D01*
X145407452Y-98494961D01*
X145356199Y-98394373D01*
X145330377Y-98358831D01*
X144651000Y-99038208D01*
X144651000Y-99009840D01*
X144625036Y-98912939D01*
X144574876Y-98826060D01*
X144503940Y-98755124D01*
X144417061Y-98704964D01*
X144320160Y-98679000D01*
X144291790Y-98679000D01*
X144971166Y-97999622D01*
X144967213Y-97949386D01*
X144981809Y-97879906D01*
X145031652Y-97829346D01*
X145092825Y-97813500D01*
X145936369Y-97813500D01*
X146004490Y-97833502D01*
G37*
%TD.AperFunction*%
%TA.AperFunction,Conductor*%
G36*
X170592598Y-94579809D02*
G01*
X170632265Y-94625586D01*
X170683371Y-94725887D01*
X170800917Y-94887675D01*
X170834595Y-94921353D01*
X170868620Y-94983663D01*
X170871500Y-95010448D01*
X170871500Y-96285500D01*
X170851498Y-96353621D01*
X170797842Y-96400114D01*
X170745500Y-96411500D01*
X168254643Y-96411500D01*
X168226333Y-96403187D01*
X168197343Y-96397717D01*
X168192681Y-96393306D01*
X168186522Y-96391498D01*
X168167198Y-96369197D01*
X168145770Y-96348924D01*
X168144232Y-96342693D01*
X168140029Y-96337842D01*
X168135829Y-96308635D01*
X168128763Y-96279994D01*
X168130551Y-96271927D01*
X168129925Y-96267568D01*
X168135413Y-96244753D01*
X168136702Y-96240981D01*
X168196399Y-96096862D01*
X168210940Y-96023753D01*
X168213652Y-96015819D01*
X168229489Y-95993394D01*
X168242209Y-95969077D01*
X168243730Y-95967528D01*
X168874913Y-95336345D01*
X168937223Y-95302321D01*
X168983710Y-95300993D01*
X169170009Y-95330500D01*
X169170012Y-95330500D01*
X169369988Y-95330500D01*
X169369991Y-95330500D01*
X169567510Y-95299216D01*
X169757703Y-95237419D01*
X169935887Y-95146629D01*
X169936478Y-95146200D01*
X169953060Y-95134152D01*
X170097675Y-95029083D01*
X170239083Y-94887675D01*
X170356629Y-94725887D01*
X170407734Y-94625587D01*
X170456481Y-94573974D01*
X170525396Y-94556908D01*
X170592598Y-94579809D01*
G37*
%TD.AperFunction*%
%TA.AperFunction,Conductor*%
G36*
X143889000Y-94110160D02*
G01*
X143914964Y-94207061D01*
X143965124Y-94293940D01*
X144036060Y-94364876D01*
X144122939Y-94415036D01*
X144219840Y-94441000D01*
X144248210Y-94441000D01*
X143568831Y-95120377D01*
X143604373Y-95146199D01*
X143782487Y-95236953D01*
X143782493Y-95236956D01*
X143972604Y-95298726D01*
X143972600Y-95298726D01*
X144170052Y-95330000D01*
X144264548Y-95330000D01*
X144332669Y-95350002D01*
X144379162Y-95403658D01*
X144389266Y-95473932D01*
X144359772Y-95538512D01*
X144353644Y-95545095D01*
X144074145Y-95824595D01*
X144011832Y-95858620D01*
X143985049Y-95861500D01*
X138653950Y-95861500D01*
X138585829Y-95841498D01*
X138539336Y-95787842D01*
X138529232Y-95717568D01*
X138558726Y-95652988D01*
X138564844Y-95646415D01*
X138874913Y-95336345D01*
X138937224Y-95302322D01*
X138983710Y-95300993D01*
X139170009Y-95330500D01*
X139170012Y-95330500D01*
X139369988Y-95330500D01*
X139369991Y-95330500D01*
X139567510Y-95299216D01*
X139757703Y-95237419D01*
X139935887Y-95146629D01*
X139936478Y-95146200D01*
X139953060Y-95134152D01*
X140097675Y-95029083D01*
X140239083Y-94887675D01*
X140356629Y-94725887D01*
X140407734Y-94625587D01*
X140456481Y-94573974D01*
X140525396Y-94556908D01*
X140592598Y-94579809D01*
X140632265Y-94625586D01*
X140683371Y-94725887D01*
X140800917Y-94887675D01*
X140800919Y-94887677D01*
X140800921Y-94887680D01*
X140942319Y-95029078D01*
X140942322Y-95029080D01*
X140942325Y-95029083D01*
X141019195Y-95084932D01*
X141104109Y-95146627D01*
X141104113Y-95146629D01*
X141282297Y-95237419D01*
X141472484Y-95299214D01*
X141472485Y-95299214D01*
X141472490Y-95299216D01*
X141670009Y-95330500D01*
X141670012Y-95330500D01*
X141869988Y-95330500D01*
X141869991Y-95330500D01*
X142067510Y-95299216D01*
X142257703Y-95237419D01*
X142435887Y-95146629D01*
X142436478Y-95146200D01*
X142453060Y-95134152D01*
X142597675Y-95029083D01*
X142739083Y-94887675D01*
X142856629Y-94725887D01*
X142908015Y-94625036D01*
X142956761Y-94573423D01*
X143025676Y-94556357D01*
X143092877Y-94579257D01*
X143132546Y-94625037D01*
X143183797Y-94725622D01*
X143209622Y-94761166D01*
X143889000Y-94081788D01*
X143889000Y-94110160D01*
G37*
%TD.AperFunction*%
%TA.AperFunction,Conductor*%
G36*
X218206341Y-84120002D02*
G01*
X218252834Y-84173658D01*
X218262938Y-84243932D01*
X218233444Y-84308512D01*
X218205256Y-84332687D01*
X218016401Y-84451352D01*
X218016395Y-84451356D01*
X217885196Y-84555985D01*
X217885196Y-84555987D01*
X218425135Y-85095926D01*
X218313669Y-85181457D01*
X218151457Y-85343669D01*
X218065926Y-85455135D01*
X217525987Y-84915196D01*
X217525985Y-84915196D01*
X217421356Y-85046395D01*
X217421352Y-85046401D01*
X217271482Y-85284917D01*
X217149263Y-85538708D01*
X217149252Y-85538735D01*
X217056223Y-85804595D01*
X216993539Y-86079228D01*
X216962000Y-86359152D01*
X216962000Y-86640847D01*
X216993539Y-86920771D01*
X217056223Y-87195404D01*
X217149252Y-87461264D01*
X217149263Y-87461291D01*
X217271482Y-87715082D01*
X217421352Y-87953598D01*
X217421356Y-87953604D01*
X217525985Y-88084802D01*
X217525986Y-88084803D01*
X218065925Y-87544863D01*
X218151457Y-87656331D01*
X218313669Y-87818543D01*
X218425134Y-87904073D01*
X217885195Y-88444012D01*
X217885196Y-88444013D01*
X218016395Y-88548643D01*
X218016401Y-88548647D01*
X218254917Y-88698517D01*
X218508708Y-88820736D01*
X218508735Y-88820747D01*
X218774595Y-88913776D01*
X219049229Y-88976460D01*
X219049226Y-88976460D01*
X219329152Y-89008000D01*
X219610848Y-89008000D01*
X219890771Y-88976460D01*
X220165404Y-88913776D01*
X220431264Y-88820747D01*
X220431291Y-88820736D01*
X220685082Y-88698516D01*
X220923587Y-88548655D01*
X220923596Y-88548648D01*
X221054802Y-88444013D01*
X221054803Y-88444012D01*
X220514864Y-87904073D01*
X220626331Y-87818543D01*
X220788543Y-87656331D01*
X220874073Y-87544864D01*
X221414012Y-88084803D01*
X221414013Y-88084802D01*
X221518648Y-87953596D01*
X221518655Y-87953587D01*
X221668516Y-87715082D01*
X221790736Y-87461291D01*
X221790747Y-87461264D01*
X221865071Y-87248860D01*
X221906449Y-87191168D01*
X221972449Y-87165006D01*
X222042117Y-87178679D01*
X222093333Y-87227846D01*
X222110000Y-87290475D01*
X222110000Y-146209524D01*
X222089998Y-146277645D01*
X222036342Y-146324138D01*
X221966068Y-146334242D01*
X221901488Y-146304748D01*
X221865071Y-146251139D01*
X221790747Y-146038735D01*
X221790736Y-146038708D01*
X221668517Y-145784917D01*
X221518647Y-145546401D01*
X221518643Y-145546395D01*
X221414013Y-145415196D01*
X221414012Y-145415195D01*
X220874073Y-145955134D01*
X220788543Y-145843669D01*
X220626331Y-145681457D01*
X220514864Y-145595925D01*
X221054803Y-145055986D01*
X221054802Y-145055985D01*
X220923604Y-144951356D01*
X220923598Y-144951352D01*
X220685082Y-144801482D01*
X220431291Y-144679263D01*
X220431264Y-144679252D01*
X220165404Y-144586223D01*
X219890770Y-144523539D01*
X219890773Y-144523539D01*
X219610848Y-144492000D01*
X219329152Y-144492000D01*
X219049228Y-144523539D01*
X218774595Y-144586223D01*
X218508735Y-144679252D01*
X218508708Y-144679263D01*
X218254917Y-144801482D01*
X218016401Y-144951352D01*
X218016395Y-144951356D01*
X217885196Y-145055985D01*
X217885196Y-145055987D01*
X218425135Y-145595926D01*
X218313669Y-145681457D01*
X218151457Y-145843669D01*
X218065926Y-145955135D01*
X217525987Y-145415196D01*
X217525985Y-145415196D01*
X217421356Y-145546395D01*
X217421352Y-145546401D01*
X217271482Y-145784917D01*
X217149263Y-146038708D01*
X217149252Y-146038735D01*
X217056223Y-146304595D01*
X216993539Y-146579228D01*
X216962000Y-146859152D01*
X216962000Y-147140847D01*
X216993539Y-147420771D01*
X217056223Y-147695404D01*
X217149252Y-147961264D01*
X217149263Y-147961291D01*
X217271482Y-148215082D01*
X217421352Y-148453598D01*
X217421356Y-148453604D01*
X217525985Y-148584802D01*
X217525986Y-148584803D01*
X218065925Y-148044863D01*
X218151457Y-148156331D01*
X218313669Y-148318543D01*
X218425134Y-148404073D01*
X217885195Y-148944012D01*
X217885196Y-148944013D01*
X218016395Y-149048643D01*
X218016401Y-149048647D01*
X218205256Y-149167313D01*
X218252294Y-149220492D01*
X218263114Y-149290659D01*
X218234281Y-149355537D01*
X218174949Y-149394528D01*
X218138220Y-149400000D01*
X101496357Y-149400000D01*
X101490636Y-149398967D01*
X101487367Y-149399679D01*
X101452324Y-149392055D01*
X101385526Y-149367140D01*
X101369174Y-149359673D01*
X101197216Y-149265777D01*
X101182092Y-149256057D01*
X101025247Y-149138644D01*
X101011661Y-149126871D01*
X100936905Y-149052115D01*
X100902879Y-148989803D01*
X100900000Y-148963020D01*
X100900000Y-142137262D01*
X100920002Y-142069141D01*
X100973658Y-142022648D01*
X101043932Y-142012544D01*
X101108512Y-142042038D01*
X101139522Y-142082593D01*
X101251483Y-142315082D01*
X101401352Y-142553598D01*
X101401356Y-142553604D01*
X101505985Y-142684802D01*
X101505986Y-142684803D01*
X102045925Y-142144863D01*
X102131457Y-142256331D01*
X102293669Y-142418543D01*
X102405134Y-142504073D01*
X101865195Y-143044012D01*
X101865196Y-143044013D01*
X101996395Y-143148643D01*
X101996401Y-143148647D01*
X102234917Y-143298517D01*
X102488708Y-143420736D01*
X102488735Y-143420747D01*
X102754595Y-143513776D01*
X103029229Y-143576460D01*
X103029226Y-143576460D01*
X103309152Y-143608000D01*
X103590848Y-143608000D01*
X103870771Y-143576460D01*
X104145404Y-143513776D01*
X104411264Y-143420747D01*
X104411291Y-143420736D01*
X104665082Y-143298516D01*
X104903587Y-143148655D01*
X104903596Y-143148648D01*
X105034802Y-143044013D01*
X105034803Y-143044012D01*
X104494864Y-142504073D01*
X104606331Y-142418543D01*
X104768543Y-142256331D01*
X104854073Y-142144864D01*
X105394012Y-142684803D01*
X105394013Y-142684802D01*
X105498648Y-142553596D01*
X105498655Y-142553587D01*
X105648516Y-142315082D01*
X105770736Y-142061291D01*
X105770747Y-142061264D01*
X105803401Y-141967946D01*
X105863776Y-141795404D01*
X105926460Y-141520771D01*
X105958000Y-141240847D01*
X105958000Y-140959153D01*
X105948655Y-140876215D01*
X105948655Y-140876214D01*
X105947624Y-140867061D01*
X109182000Y-140867061D01*
X109182000Y-141072938D01*
X109214208Y-141276296D01*
X109277826Y-141472093D01*
X109277829Y-141472099D01*
X109371297Y-141655540D01*
X109371298Y-141655541D01*
X109402416Y-141698372D01*
X110090000Y-141010788D01*
X110090000Y-141022661D01*
X110117259Y-141124394D01*
X110169920Y-141215606D01*
X110244394Y-141290080D01*
X110335606Y-141342741D01*
X110437339Y-141370000D01*
X110449210Y-141370000D01*
X109761626Y-142057582D01*
X109761626Y-142057583D01*
X109804454Y-142088699D01*
X109987900Y-142182170D01*
X109987906Y-142182173D01*
X110183705Y-142245791D01*
X110183701Y-142245791D01*
X110387061Y-142278000D01*
X110592939Y-142278000D01*
X110796296Y-142245791D01*
X110992093Y-142182173D01*
X110992099Y-142182170D01*
X111175541Y-142088701D01*
X111218372Y-142057582D01*
X111218372Y-142057581D01*
X110530791Y-141370000D01*
X110542661Y-141370000D01*
X110644394Y-141342741D01*
X110735606Y-141290080D01*
X110810080Y-141215606D01*
X110862741Y-141124394D01*
X110890000Y-141022661D01*
X110890000Y-141010791D01*
X111577581Y-141698372D01*
X111577582Y-141698372D01*
X111608701Y-141655541D01*
X111702170Y-141472099D01*
X111702173Y-141472093D01*
X111765791Y-141276296D01*
X111798000Y-141072938D01*
X111798000Y-140867061D01*
X111797993Y-140867019D01*
X119341500Y-140867019D01*
X119341500Y-141072981D01*
X119373720Y-141276408D01*
X119437366Y-141472290D01*
X119530871Y-141655803D01*
X119651932Y-141822430D01*
X119651934Y-141822432D01*
X119651936Y-141822435D01*
X119797564Y-141968063D01*
X119797567Y-141968065D01*
X119797570Y-141968068D01*
X119964197Y-142089129D01*
X120147710Y-142182634D01*
X120343592Y-142246280D01*
X120547019Y-142278500D01*
X120547022Y-142278500D01*
X120752978Y-142278500D01*
X120752981Y-142278500D01*
X120956408Y-142246280D01*
X121152290Y-142182634D01*
X121335803Y-142089129D01*
X121502430Y-141968068D01*
X121648068Y-141822430D01*
X121769129Y-141655803D01*
X121862634Y-141472290D01*
X121926280Y-141276408D01*
X121958500Y-141072981D01*
X121958500Y-140867019D01*
X121926280Y-140663592D01*
X121862634Y-140467710D01*
X121769129Y-140284197D01*
X121648068Y-140117570D01*
X121648065Y-140117567D01*
X121648063Y-140117564D01*
X121551849Y-140021350D01*
X122416500Y-140021350D01*
X122416500Y-141918649D01*
X122423009Y-141979196D01*
X122423011Y-141979204D01*
X122474110Y-142116202D01*
X122474112Y-142116207D01*
X122561738Y-142233261D01*
X122678792Y-142320887D01*
X122678794Y-142320888D01*
X122678796Y-142320889D01*
X122737875Y-142342924D01*
X122815795Y-142371988D01*
X122815803Y-142371990D01*
X122876350Y-142378499D01*
X122876355Y-142378499D01*
X122876362Y-142378500D01*
X122876368Y-142378500D01*
X124773632Y-142378500D01*
X124773638Y-142378500D01*
X124773645Y-142378499D01*
X124773649Y-142378499D01*
X124834196Y-142371990D01*
X124834199Y-142371989D01*
X124834201Y-142371989D01*
X124971204Y-142320889D01*
X124978962Y-142315082D01*
X125088261Y-142233261D01*
X125175887Y-142116207D01*
X125175888Y-142116205D01*
X125175887Y-142116205D01*
X125175889Y-142116204D01*
X125200660Y-142049789D01*
X125243204Y-141992957D01*
X125309724Y-141968145D01*
X125379098Y-141983236D01*
X125407809Y-142004729D01*
X125447421Y-142044341D01*
X125508477Y-142088701D01*
X125626785Y-142174657D01*
X125824324Y-142275308D01*
X126035176Y-142343818D01*
X126254149Y-142378500D01*
X126254152Y-142378500D01*
X126475848Y-142378500D01*
X126475851Y-142378500D01*
X126694824Y-142343818D01*
X126905676Y-142275308D01*
X127103215Y-142174657D01*
X127282576Y-142044343D01*
X127439343Y-141887576D01*
X127569657Y-141708215D01*
X127670308Y-141510676D01*
X127738818Y-141299824D01*
X127773500Y-141080851D01*
X127773500Y-140859149D01*
X127738818Y-140640176D01*
X127670308Y-140429324D01*
X127569657Y-140231785D01*
X127439343Y-140052424D01*
X127439341Y-140052421D01*
X127282578Y-139895658D01*
X127103218Y-139765345D01*
X127103217Y-139765344D01*
X127103215Y-139765343D01*
X126905676Y-139664692D01*
X126905673Y-139664691D01*
X126905671Y-139664690D01*
X126694829Y-139596183D01*
X126694825Y-139596182D01*
X126694824Y-139596182D01*
X126475851Y-139561500D01*
X126254149Y-139561500D01*
X126035176Y-139596182D01*
X126035170Y-139596183D01*
X125824328Y-139664690D01*
X125824322Y-139664693D01*
X125626781Y-139765345D01*
X125447421Y-139895658D01*
X125407808Y-139935271D01*
X125345496Y-139969296D01*
X125274680Y-139964230D01*
X125217845Y-139921683D01*
X125200662Y-139890214D01*
X125175889Y-139823796D01*
X125175887Y-139823794D01*
X125175887Y-139823792D01*
X125088261Y-139706738D01*
X124971207Y-139619112D01*
X124971202Y-139619110D01*
X124834204Y-139568011D01*
X124834196Y-139568009D01*
X124773649Y-139561500D01*
X124773638Y-139561500D01*
X122876362Y-139561500D01*
X122876350Y-139561500D01*
X122815803Y-139568009D01*
X122815795Y-139568011D01*
X122678797Y-139619110D01*
X122678792Y-139619112D01*
X122561738Y-139706738D01*
X122474112Y-139823792D01*
X122474110Y-139823797D01*
X122423011Y-139960795D01*
X122423009Y-139960803D01*
X122416500Y-140021350D01*
X121551849Y-140021350D01*
X121502435Y-139971936D01*
X121502432Y-139971934D01*
X121502430Y-139971932D01*
X121336391Y-139851298D01*
X121335806Y-139850873D01*
X121335805Y-139850872D01*
X121335803Y-139850871D01*
X121152290Y-139757366D01*
X121152287Y-139757365D01*
X121152285Y-139757364D01*
X120956412Y-139693721D01*
X120956410Y-139693720D01*
X120956408Y-139693720D01*
X120752981Y-139661500D01*
X120547019Y-139661500D01*
X120343592Y-139693720D01*
X120343590Y-139693720D01*
X120343587Y-139693721D01*
X120147714Y-139757364D01*
X120147708Y-139757367D01*
X119964193Y-139850873D01*
X119797567Y-139971934D01*
X119797564Y-139971936D01*
X119651936Y-140117564D01*
X119651934Y-140117567D01*
X119530873Y-140284193D01*
X119437367Y-140467708D01*
X119437364Y-140467714D01*
X119373721Y-140663587D01*
X119373720Y-140663590D01*
X119373720Y-140663592D01*
X119341500Y-140867019D01*
X111797993Y-140867019D01*
X111765791Y-140663703D01*
X111702173Y-140467906D01*
X111702170Y-140467900D01*
X111608699Y-140284454D01*
X111577583Y-140241626D01*
X111577582Y-140241626D01*
X110890000Y-140929208D01*
X110890000Y-140917339D01*
X110862741Y-140815606D01*
X110810080Y-140724394D01*
X110735606Y-140649920D01*
X110644394Y-140597259D01*
X110542661Y-140570000D01*
X110530790Y-140570000D01*
X111218372Y-139882416D01*
X111175541Y-139851298D01*
X111175540Y-139851297D01*
X110992099Y-139757829D01*
X110992093Y-139757826D01*
X110796294Y-139694208D01*
X110796298Y-139694208D01*
X110592939Y-139662000D01*
X110387061Y-139662000D01*
X110183703Y-139694208D01*
X109987906Y-139757826D01*
X109987900Y-139757829D01*
X109804452Y-139851301D01*
X109761625Y-139882416D01*
X110449209Y-140570000D01*
X110437339Y-140570000D01*
X110335606Y-140597259D01*
X110244394Y-140649920D01*
X110169920Y-140724394D01*
X110117259Y-140815606D01*
X110090000Y-140917339D01*
X110090000Y-140929209D01*
X109402416Y-140241625D01*
X109371301Y-140284452D01*
X109277829Y-140467900D01*
X109277826Y-140467906D01*
X109214208Y-140663703D01*
X109182000Y-140867061D01*
X105947624Y-140867061D01*
X105926460Y-140679228D01*
X105863776Y-140404595D01*
X105770747Y-140138735D01*
X105770739Y-140138715D01*
X105696765Y-139985107D01*
X105696764Y-139985105D01*
X105648516Y-139884917D01*
X105498647Y-139646401D01*
X105498643Y-139646395D01*
X105394013Y-139515196D01*
X105394012Y-139515195D01*
X104854073Y-140055134D01*
X104768543Y-139943669D01*
X104606331Y-139781457D01*
X104494864Y-139695925D01*
X105034803Y-139155986D01*
X105034802Y-139155985D01*
X104903604Y-139051356D01*
X104903598Y-139051352D01*
X104665082Y-138901482D01*
X104411291Y-138779263D01*
X104411264Y-138779252D01*
X104145404Y-138686223D01*
X103870770Y-138623539D01*
X103870773Y-138623539D01*
X103590848Y-138592000D01*
X103309152Y-138592000D01*
X103029228Y-138623539D01*
X102754595Y-138686223D01*
X102488735Y-138779252D01*
X102488708Y-138779263D01*
X102234917Y-138901482D01*
X101996401Y-139051352D01*
X101996395Y-139051356D01*
X101865196Y-139155985D01*
X101865196Y-139155987D01*
X102405135Y-139695926D01*
X102293669Y-139781457D01*
X102131457Y-139943669D01*
X102045926Y-140055135D01*
X101505987Y-139515196D01*
X101505985Y-139515196D01*
X101401356Y-139646395D01*
X101401352Y-139646401D01*
X101251482Y-139884917D01*
X101139522Y-140117406D01*
X101091944Y-140170103D01*
X101023430Y-140188711D01*
X100955731Y-140167323D01*
X100910342Y-140112730D01*
X100900000Y-140062737D01*
X100900000Y-132635367D01*
X102061500Y-132635367D01*
X102061500Y-132794632D01*
X102070687Y-132840819D01*
X102092570Y-132950831D01*
X102153517Y-133097968D01*
X102216139Y-133191689D01*
X102241998Y-133230390D01*
X102242003Y-133230396D01*
X102354603Y-133342996D01*
X102354609Y-133343001D01*
X102354611Y-133343003D01*
X102487032Y-133431483D01*
X102634169Y-133492430D01*
X102790370Y-133523500D01*
X102790371Y-133523500D01*
X102949629Y-133523500D01*
X102949630Y-133523500D01*
X103105831Y-133492430D01*
X103252968Y-133431483D01*
X103307968Y-133394733D01*
X103375720Y-133373520D01*
X103377968Y-133373500D01*
X104825430Y-133373500D01*
X104893551Y-133393502D01*
X104940044Y-133447158D01*
X104950148Y-133517432D01*
X104930195Y-133569500D01*
X104908459Y-133602032D01*
X104848950Y-133745699D01*
X104847513Y-133749167D01*
X104847512Y-133749170D01*
X104816442Y-133905367D01*
X104816442Y-134064632D01*
X104830787Y-134136749D01*
X104847512Y-134220831D01*
X104908459Y-134367968D01*
X104989894Y-134489845D01*
X104996940Y-134500390D01*
X104996945Y-134500396D01*
X105109545Y-134612996D01*
X105109551Y-134613001D01*
X105109553Y-134613003D01*
X105241974Y-134701483D01*
X105389111Y-134762430D01*
X105545312Y-134793500D01*
X105545313Y-134793500D01*
X105704571Y-134793500D01*
X105704572Y-134793500D01*
X105860773Y-134762430D01*
X106007910Y-134701483D01*
X106140331Y-134613003D01*
X106252945Y-134500389D01*
X106341425Y-134367968D01*
X106353562Y-134338664D01*
X106398110Y-134283385D01*
X106465473Y-134260964D01*
X106534265Y-134278522D01*
X106582643Y-134330484D01*
X106586375Y-134338655D01*
X106598517Y-134367968D01*
X106631118Y-134416760D01*
X106686998Y-134500390D01*
X106687003Y-134500396D01*
X106799603Y-134612996D01*
X106799609Y-134613001D01*
X106799611Y-134613003D01*
X106932032Y-134701483D01*
X107079169Y-134762430D01*
X107235370Y-134793500D01*
X107235371Y-134793500D01*
X107394629Y-134793500D01*
X107394630Y-134793500D01*
X107550831Y-134762430D01*
X107697968Y-134701483D01*
X107830389Y-134613003D01*
X107943003Y-134500389D01*
X108031483Y-134367968D01*
X108092430Y-134220831D01*
X108092431Y-134220824D01*
X108092432Y-134220824D01*
X108105334Y-134155956D01*
X108114239Y-134138929D01*
X108118325Y-134120150D01*
X108137368Y-134094711D01*
X108138240Y-134093046D01*
X108139761Y-134091497D01*
X108172672Y-134058586D01*
X108234982Y-134024562D01*
X108305797Y-134029627D01*
X108331764Y-134042916D01*
X108367035Y-134066483D01*
X108514172Y-134127430D01*
X108670373Y-134158500D01*
X108670374Y-134158500D01*
X108829632Y-134158500D01*
X108829633Y-134158500D01*
X108933624Y-134137815D01*
X109004337Y-134144143D01*
X109060405Y-134187697D01*
X109074187Y-134215533D01*
X109075202Y-134215113D01*
X109077569Y-134220828D01*
X109077570Y-134220831D01*
X109138517Y-134367968D01*
X109219952Y-134489845D01*
X109226998Y-134500390D01*
X109227003Y-134500396D01*
X109339603Y-134612996D01*
X109339609Y-134613001D01*
X109339611Y-134613003D01*
X109472032Y-134701483D01*
X109619169Y-134762430D01*
X109775370Y-134793500D01*
X109775371Y-134793500D01*
X109934629Y-134793500D01*
X109934630Y-134793500D01*
X110090831Y-134762430D01*
X110237968Y-134701483D01*
X110370389Y-134613003D01*
X110483003Y-134500389D01*
X110571483Y-134367968D01*
X110632430Y-134220831D01*
X110663500Y-134064630D01*
X110663500Y-133918834D01*
X110683502Y-133850713D01*
X110737158Y-133804220D01*
X110807432Y-133794116D01*
X110872012Y-133823610D01*
X110878595Y-133829739D01*
X112112347Y-135063491D01*
X112220199Y-135135555D01*
X112340039Y-135185194D01*
X112467259Y-135210500D01*
X112596973Y-135210500D01*
X113907050Y-135210500D01*
X113936965Y-135219283D01*
X113967435Y-135225912D01*
X113972530Y-135229726D01*
X113975171Y-135230502D01*
X113996145Y-135247405D01*
X114110181Y-135361441D01*
X114144207Y-135423753D01*
X114144665Y-135425954D01*
X114151219Y-135458903D01*
X114157570Y-135490831D01*
X114218517Y-135637968D01*
X114306997Y-135770389D01*
X114306998Y-135770390D01*
X114307003Y-135770396D01*
X114419603Y-135882996D01*
X114419609Y-135883001D01*
X114419611Y-135883003D01*
X114552032Y-135971483D01*
X114699169Y-136032430D01*
X114855370Y-136063500D01*
X114855371Y-136063500D01*
X115014629Y-136063500D01*
X115014630Y-136063500D01*
X115170831Y-136032430D01*
X115317968Y-135971483D01*
X115450389Y-135883003D01*
X115563003Y-135770389D01*
X115651483Y-135637968D01*
X115712430Y-135490831D01*
X115743500Y-135334630D01*
X115743500Y-135175370D01*
X115712430Y-135019169D01*
X115651483Y-134872032D01*
X115607028Y-134805500D01*
X115603943Y-134795647D01*
X115597180Y-134787842D01*
X115593512Y-134762335D01*
X115585814Y-134737749D01*
X115588545Y-134727790D01*
X115587076Y-134717568D01*
X115597780Y-134694129D01*
X115604597Y-134669282D01*
X115612280Y-134662380D01*
X115616570Y-134652988D01*
X115638242Y-134639059D01*
X115657414Y-134621839D01*
X115669199Y-134619164D01*
X115676296Y-134614604D01*
X115711794Y-134609500D01*
X115846050Y-134609500D01*
X115914171Y-134629502D01*
X115935145Y-134646405D01*
X116015181Y-134726441D01*
X116049207Y-134788753D01*
X116049665Y-134790954D01*
X116050599Y-134795647D01*
X116062570Y-134855831D01*
X116123517Y-135002968D01*
X116163957Y-135063491D01*
X116211998Y-135135390D01*
X116212003Y-135135396D01*
X116324603Y-135247996D01*
X116324609Y-135248001D01*
X116324611Y-135248003D01*
X116457032Y-135336483D01*
X116604169Y-135397430D01*
X116760370Y-135428500D01*
X116760371Y-135428500D01*
X116919629Y-135428500D01*
X116919630Y-135428500D01*
X117075831Y-135397430D01*
X117222968Y-135336483D01*
X117355389Y-135248003D01*
X117468003Y-135135389D01*
X117556483Y-135002968D01*
X117617430Y-134855831D01*
X117648500Y-134699630D01*
X117648500Y-134540370D01*
X117640547Y-134500389D01*
X117619110Y-134392615D01*
X117619110Y-134392614D01*
X117617431Y-134384175D01*
X117617430Y-134384169D01*
X117556483Y-134237032D01*
X117534746Y-134204500D01*
X117513532Y-134136749D01*
X117532315Y-134068282D01*
X117585132Y-134020839D01*
X117639512Y-134008500D01*
X118872032Y-134008500D01*
X118940153Y-134028502D01*
X118942002Y-134029713D01*
X118997032Y-134066483D01*
X119144169Y-134127430D01*
X119300370Y-134158500D01*
X119300371Y-134158500D01*
X119459629Y-134158500D01*
X119459630Y-134158500D01*
X119615831Y-134127430D01*
X119762968Y-134066483D01*
X119895389Y-133978003D01*
X120008003Y-133865389D01*
X120096483Y-133732968D01*
X120157430Y-133585831D01*
X120188500Y-133429630D01*
X120188500Y-133270370D01*
X120157430Y-133114169D01*
X120096483Y-132967032D01*
X120008003Y-132834611D01*
X120007999Y-132834607D01*
X120007996Y-132834603D01*
X119895396Y-132722003D01*
X119895390Y-132721998D01*
X119895389Y-132721997D01*
X119762968Y-132633517D01*
X119615831Y-132572570D01*
X119537730Y-132557035D01*
X119459632Y-132541500D01*
X119459630Y-132541500D01*
X119300370Y-132541500D01*
X119300367Y-132541500D01*
X119183219Y-132564802D01*
X119144169Y-132572570D01*
X119144167Y-132572571D01*
X118997033Y-132633516D01*
X118971993Y-132650247D01*
X118942031Y-132670266D01*
X118874280Y-132691480D01*
X118872032Y-132691500D01*
X113354950Y-132691500D01*
X113325034Y-132682716D01*
X113294565Y-132676088D01*
X113289469Y-132672273D01*
X113286829Y-132671498D01*
X113265855Y-132654595D01*
X113090405Y-132479145D01*
X113056379Y-132416833D01*
X113053500Y-132390050D01*
X113053500Y-130666819D01*
X113063090Y-130618602D01*
X113076273Y-130586777D01*
X113103500Y-130449898D01*
X113103500Y-130310335D01*
X113076273Y-130173455D01*
X113022865Y-130044516D01*
X112945328Y-129928474D01*
X112319404Y-129302549D01*
X112285379Y-129240237D01*
X112282500Y-129213454D01*
X112282500Y-124380367D01*
X138256500Y-124380367D01*
X138256500Y-124380370D01*
X138256500Y-124539630D01*
X138287570Y-124695831D01*
X138318043Y-124769399D01*
X138348516Y-124842968D01*
X138436997Y-124975389D01*
X140540611Y-127079003D01*
X140673032Y-127167484D01*
X140746600Y-127197956D01*
X140820169Y-127228430D01*
X140976370Y-127259500D01*
X140976371Y-127259500D01*
X158108629Y-127259500D01*
X158108630Y-127259500D01*
X158264831Y-127228430D01*
X158338399Y-127197956D01*
X158411968Y-127167484D01*
X158544389Y-127079003D01*
X161283003Y-124340389D01*
X161371484Y-124207968D01*
X161412323Y-124109373D01*
X161432430Y-124060831D01*
X161463500Y-123904630D01*
X161463500Y-123745370D01*
X161432430Y-123589169D01*
X161400914Y-123513083D01*
X161371484Y-123442032D01*
X161283003Y-123309611D01*
X161170389Y-123196997D01*
X161037968Y-123108516D01*
X160964399Y-123078043D01*
X160890831Y-123047570D01*
X160734632Y-123016500D01*
X160734630Y-123016500D01*
X160575370Y-123016500D01*
X160575367Y-123016500D01*
X160419168Y-123047570D01*
X160419163Y-123047572D01*
X160345600Y-123078043D01*
X160272032Y-123108516D01*
X160139615Y-123196994D01*
X160139608Y-123196999D01*
X157731013Y-125605595D01*
X157668701Y-125639621D01*
X157641918Y-125642500D01*
X141443082Y-125642500D01*
X141374961Y-125622498D01*
X141353987Y-125605595D01*
X139580391Y-123831999D01*
X139580389Y-123831997D01*
X139447968Y-123743516D01*
X139374399Y-123713043D01*
X139300831Y-123682570D01*
X139144632Y-123651500D01*
X139144630Y-123651500D01*
X138985370Y-123651500D01*
X138985367Y-123651500D01*
X138829168Y-123682570D01*
X138829163Y-123682572D01*
X138755600Y-123713043D01*
X138682032Y-123743516D01*
X138549615Y-123831994D01*
X138549608Y-123831999D01*
X138436999Y-123944608D01*
X138436994Y-123944615D01*
X138348516Y-124077031D01*
X138323711Y-124136917D01*
X138287572Y-124224163D01*
X138287570Y-124224168D01*
X138256500Y-124380367D01*
X112282500Y-124380367D01*
X112282500Y-105099950D01*
X112302502Y-105031829D01*
X112319405Y-105010855D01*
X113848761Y-103481499D01*
X115446491Y-101883769D01*
X115518555Y-101775917D01*
X115568194Y-101656077D01*
X115570497Y-101644500D01*
X115593500Y-101528857D01*
X115593500Y-100111427D01*
X115595306Y-100102539D01*
X115594339Y-100096906D01*
X115600369Y-100077630D01*
X115603500Y-100062233D01*
X115606344Y-100055525D01*
X115607174Y-100054284D01*
X115664351Y-99916246D01*
X115693500Y-99769706D01*
X115693500Y-99620294D01*
X115664351Y-99473754D01*
X115607174Y-99335716D01*
X115524165Y-99211484D01*
X115418516Y-99105835D01*
X115360972Y-99067385D01*
X115349714Y-99059863D01*
X115294284Y-99022826D01*
X115156249Y-98965650D01*
X115156246Y-98965649D01*
X115003635Y-98935292D01*
X115003929Y-98933811D01*
X114945035Y-98910025D01*
X114904030Y-98852067D01*
X114900869Y-98781141D01*
X114934128Y-98722130D01*
X115805856Y-97850402D01*
X115868166Y-97816379D01*
X115894949Y-97813500D01*
X130947174Y-97813500D01*
X131015295Y-97833502D01*
X131061788Y-97887158D01*
X131072786Y-97949386D01*
X131068832Y-97999623D01*
X131748209Y-98679000D01*
X131719840Y-98679000D01*
X131622939Y-98704964D01*
X131536060Y-98755124D01*
X131465124Y-98826060D01*
X131414964Y-98912939D01*
X131389000Y-99009840D01*
X131389000Y-99038209D01*
X130709623Y-98358832D01*
X130709622Y-98358832D01*
X130683799Y-98394375D01*
X130683798Y-98394376D01*
X130593046Y-98572487D01*
X130593043Y-98572493D01*
X130531273Y-98762602D01*
X130500000Y-98960052D01*
X130500000Y-99159947D01*
X130531273Y-99357397D01*
X130593043Y-99547506D01*
X130593046Y-99547512D01*
X130683799Y-99725624D01*
X130709622Y-99761166D01*
X131389000Y-99081788D01*
X131389000Y-99110160D01*
X131414964Y-99207061D01*
X131465124Y-99293940D01*
X131536060Y-99364876D01*
X131622939Y-99415036D01*
X131719840Y-99441000D01*
X131748210Y-99441000D01*
X131068831Y-100120377D01*
X131104373Y-100146199D01*
X131282487Y-100236953D01*
X131282493Y-100236956D01*
X131472604Y-100298726D01*
X131472600Y-100298726D01*
X131670052Y-100330000D01*
X131869948Y-100330000D01*
X132067397Y-100298726D01*
X132257506Y-100236956D01*
X132257512Y-100236953D01*
X132435626Y-100146200D01*
X132471166Y-100120377D01*
X131791790Y-99441000D01*
X131820160Y-99441000D01*
X131917061Y-99415036D01*
X132003940Y-99364876D01*
X132074876Y-99293940D01*
X132125036Y-99207061D01*
X132151000Y-99110160D01*
X132151000Y-99081789D01*
X132830377Y-99761166D01*
X132856201Y-99725624D01*
X132856202Y-99725622D01*
X132907733Y-99624488D01*
X132956481Y-99572872D01*
X133025396Y-99555806D01*
X133092597Y-99578706D01*
X133132267Y-99624487D01*
X133183799Y-99725624D01*
X133209622Y-99761166D01*
X133889000Y-99081788D01*
X133889000Y-99110160D01*
X133914964Y-99207061D01*
X133965124Y-99293940D01*
X134036060Y-99364876D01*
X134122939Y-99415036D01*
X134219840Y-99441000D01*
X134248210Y-99441000D01*
X133568831Y-100120377D01*
X133604373Y-100146199D01*
X133782487Y-100236953D01*
X133782493Y-100236956D01*
X133972604Y-100298726D01*
X133972600Y-100298726D01*
X134170052Y-100330000D01*
X134369948Y-100330000D01*
X134567397Y-100298726D01*
X134757506Y-100236956D01*
X134757512Y-100236953D01*
X134935626Y-100146200D01*
X134971166Y-100120377D01*
X134291790Y-99441000D01*
X134320160Y-99441000D01*
X134417061Y-99415036D01*
X134503940Y-99364876D01*
X134574876Y-99293940D01*
X134625036Y-99207061D01*
X134651000Y-99110160D01*
X134651000Y-99081789D01*
X135330377Y-99761166D01*
X135356201Y-99725624D01*
X135356202Y-99725623D01*
X135407452Y-99625039D01*
X135456200Y-99573423D01*
X135525115Y-99556357D01*
X135592316Y-99579257D01*
X135631984Y-99625036D01*
X135683371Y-99725887D01*
X135800917Y-99887675D01*
X135800919Y-99887677D01*
X135800921Y-99887680D01*
X135942319Y-100029078D01*
X135942322Y-100029080D01*
X135942325Y-100029083D01*
X136010430Y-100078564D01*
X136104109Y-100146627D01*
X136104113Y-100146629D01*
X136282297Y-100237419D01*
X136472484Y-100299214D01*
X136472485Y-100299214D01*
X136472490Y-100299216D01*
X136670009Y-100330500D01*
X136670012Y-100330500D01*
X136869988Y-100330500D01*
X136869991Y-100330500D01*
X137013121Y-100307830D01*
X137083529Y-100316929D01*
X137121924Y-100343184D01*
X140194231Y-103415491D01*
X140293021Y-103481500D01*
X140302083Y-103487555D01*
X140421923Y-103537194D01*
X140549143Y-103562500D01*
X140549144Y-103562500D01*
X140678857Y-103562500D01*
X148616346Y-103562500D01*
X148684467Y-103582502D01*
X148730960Y-103636158D01*
X148741064Y-103706432D01*
X148739925Y-103713081D01*
X148734000Y-103742864D01*
X148734000Y-103902132D01*
X148749535Y-103980230D01*
X148765070Y-104058331D01*
X148826017Y-104205468D01*
X148914497Y-104337889D01*
X148914498Y-104337890D01*
X148914503Y-104337896D01*
X148963012Y-104386405D01*
X148997038Y-104448717D01*
X148991973Y-104519532D01*
X148949426Y-104576368D01*
X148882906Y-104601179D01*
X148873917Y-104601500D01*
X135571539Y-104601500D01*
X135523320Y-104591908D01*
X135505423Y-104584494D01*
X135505415Y-104584492D01*
X135339558Y-104551500D01*
X135339555Y-104551500D01*
X135170445Y-104551500D01*
X135170441Y-104551500D01*
X135004584Y-104584492D01*
X135004581Y-104584493D01*
X134848347Y-104649207D01*
X134707739Y-104743158D01*
X134707733Y-104743163D01*
X134588163Y-104862733D01*
X134588158Y-104862739D01*
X134494207Y-105003347D01*
X134429493Y-105159581D01*
X134429492Y-105159584D01*
X134396500Y-105325441D01*
X134396500Y-105494558D01*
X134429492Y-105660415D01*
X134429493Y-105660418D01*
X134449271Y-105708167D01*
X134494207Y-105816652D01*
X134588159Y-105957262D01*
X134707738Y-106076841D01*
X134848348Y-106170793D01*
X135004585Y-106235508D01*
X135170445Y-106268500D01*
X135339555Y-106268500D01*
X135505415Y-106235508D01*
X135505421Y-106235505D01*
X135505423Y-106235505D01*
X135523320Y-106228092D01*
X135571539Y-106218500D01*
X148837918Y-106218500D01*
X148906039Y-106238502D01*
X148927013Y-106255405D01*
X151393095Y-108721487D01*
X151427121Y-108783799D01*
X151430000Y-108810582D01*
X151430000Y-119933130D01*
X151461070Y-120089331D01*
X151491543Y-120162899D01*
X151522016Y-120236468D01*
X151610497Y-120368889D01*
X153220611Y-121979003D01*
X153353032Y-122067484D01*
X153426600Y-122097956D01*
X153500169Y-122128430D01*
X153656370Y-122159500D01*
X153656371Y-122159500D01*
X154674993Y-122159500D01*
X154674994Y-122159500D01*
X154831195Y-122128430D01*
X154904763Y-122097956D01*
X154978332Y-122067484D01*
X155110753Y-121979003D01*
X160648003Y-116441753D01*
X160736484Y-116309332D01*
X160789433Y-116181500D01*
X160797430Y-116162195D01*
X160828500Y-116005994D01*
X160828500Y-111441539D01*
X160838092Y-111393320D01*
X160845505Y-111375423D01*
X160845505Y-111375421D01*
X160845508Y-111375415D01*
X160878500Y-111209555D01*
X160878500Y-111040445D01*
X160845508Y-110874585D01*
X160780793Y-110718348D01*
X160686841Y-110577738D01*
X160567262Y-110458159D01*
X160426652Y-110364207D01*
X160270418Y-110299493D01*
X160270415Y-110299492D01*
X160104558Y-110266500D01*
X160104555Y-110266500D01*
X159935445Y-110266500D01*
X159935441Y-110266500D01*
X159769584Y-110299492D01*
X159769581Y-110299493D01*
X159613347Y-110364207D01*
X159472739Y-110458158D01*
X159472733Y-110458163D01*
X159353163Y-110577733D01*
X159353158Y-110577739D01*
X159259207Y-110718347D01*
X159194493Y-110874581D01*
X159194492Y-110874582D01*
X159178770Y-110953622D01*
X159169055Y-110972193D01*
X159164022Y-110992535D01*
X159152932Y-111003012D01*
X159145861Y-111016531D01*
X159127650Y-111026900D01*
X159112417Y-111041294D01*
X159097422Y-111044113D01*
X159084166Y-111051662D01*
X159063241Y-111050540D01*
X159042643Y-111054413D01*
X159017469Y-111048086D01*
X159013271Y-111047861D01*
X159007829Y-111045799D01*
X159007465Y-111045651D01*
X158971246Y-111030649D01*
X158969742Y-111030349D01*
X158962904Y-111027576D01*
X158949279Y-111016760D01*
X158921171Y-110999911D01*
X158674405Y-110753145D01*
X158640379Y-110690833D01*
X158637500Y-110664050D01*
X158637500Y-106505948D01*
X158657502Y-106437827D01*
X158674400Y-106416858D01*
X161064393Y-104026864D01*
X161064398Y-104026861D01*
X161074767Y-104016491D01*
X161074769Y-104016491D01*
X162160855Y-102930403D01*
X162223166Y-102896380D01*
X162249949Y-102893500D01*
X168339857Y-102893500D01*
X168467077Y-102868194D01*
X168586917Y-102818555D01*
X168694769Y-102746491D01*
X169781490Y-101659769D01*
X169787052Y-101651445D01*
X169853555Y-101551917D01*
X169903194Y-101432077D01*
X169928500Y-101304857D01*
X169928500Y-100216196D01*
X169948502Y-100148075D01*
X169980439Y-100114260D01*
X169984338Y-100111427D01*
X170097675Y-100029083D01*
X170239083Y-99887675D01*
X170356629Y-99725887D01*
X170407734Y-99625587D01*
X170456481Y-99573974D01*
X170525396Y-99556908D01*
X170592598Y-99579809D01*
X170632265Y-99625586D01*
X170683371Y-99725887D01*
X170800917Y-99887675D01*
X170800919Y-99887677D01*
X170800921Y-99887680D01*
X170924595Y-100011354D01*
X170958621Y-100073666D01*
X170961500Y-100100449D01*
X170961500Y-106354956D01*
X170941498Y-106423077D01*
X170909562Y-106456891D01*
X170847570Y-106501931D01*
X170847564Y-106501936D01*
X170701936Y-106647564D01*
X170701934Y-106647567D01*
X170580873Y-106814193D01*
X170487367Y-106997708D01*
X170487364Y-106997714D01*
X170423721Y-107193587D01*
X170423720Y-107193590D01*
X170423720Y-107193592D01*
X170391500Y-107397019D01*
X170391500Y-107602981D01*
X170423720Y-107806408D01*
X170423721Y-107806412D01*
X170445563Y-107873636D01*
X170487366Y-108002290D01*
X170580871Y-108185803D01*
X170701932Y-108352430D01*
X170701934Y-108352432D01*
X170701936Y-108352435D01*
X170847564Y-108498063D01*
X170847567Y-108498065D01*
X170847570Y-108498068D01*
X171014197Y-108619129D01*
X171197710Y-108712634D01*
X171393592Y-108776280D01*
X171597019Y-108808500D01*
X171597022Y-108808500D01*
X171802978Y-108808500D01*
X171802981Y-108808500D01*
X172006408Y-108776280D01*
X172202290Y-108712634D01*
X172385803Y-108619129D01*
X172552430Y-108498068D01*
X172698068Y-108352430D01*
X172819129Y-108185803D01*
X172912634Y-108002290D01*
X172976280Y-107806408D01*
X173008500Y-107602981D01*
X173008500Y-107397019D01*
X172976280Y-107193592D01*
X172912634Y-106997710D01*
X172819129Y-106814197D01*
X172698068Y-106647570D01*
X172698065Y-106647567D01*
X172698063Y-106647564D01*
X172615405Y-106564906D01*
X172581379Y-106502594D01*
X172578500Y-106475811D01*
X172578500Y-100100449D01*
X172598502Y-100032328D01*
X172615405Y-100011354D01*
X172739078Y-99887680D01*
X172739083Y-99887675D01*
X172856629Y-99725887D01*
X172907734Y-99625587D01*
X172956481Y-99573974D01*
X173025396Y-99556908D01*
X173092598Y-99579809D01*
X173132265Y-99625586D01*
X173183371Y-99725887D01*
X173300917Y-99887675D01*
X173300919Y-99887677D01*
X173300921Y-99887680D01*
X173442319Y-100029078D01*
X173442322Y-100029080D01*
X173442325Y-100029083D01*
X173510430Y-100078564D01*
X173604109Y-100146627D01*
X173604113Y-100146629D01*
X173782297Y-100237419D01*
X173972484Y-100299214D01*
X173972485Y-100299214D01*
X173972490Y-100299216D01*
X174170009Y-100330500D01*
X174170012Y-100330500D01*
X174369988Y-100330500D01*
X174369991Y-100330500D01*
X174567510Y-100299216D01*
X174757703Y-100237419D01*
X174935887Y-100146629D01*
X174936478Y-100146200D01*
X174971853Y-100120498D01*
X175097675Y-100029083D01*
X175239083Y-99887675D01*
X175356629Y-99725887D01*
X175407734Y-99625587D01*
X175456481Y-99573974D01*
X175525396Y-99556908D01*
X175592598Y-99579809D01*
X175632265Y-99625586D01*
X175683371Y-99725887D01*
X175800917Y-99887675D01*
X175800919Y-99887677D01*
X175800921Y-99887680D01*
X175942328Y-100029087D01*
X176009559Y-100077931D01*
X176052914Y-100134152D01*
X176061500Y-100179868D01*
X176061500Y-101014338D01*
X176041498Y-101082459D01*
X176024595Y-101103433D01*
X173791163Y-103336864D01*
X173750287Y-103364177D01*
X173607036Y-103423514D01*
X173607032Y-103423516D01*
X173474609Y-103511998D01*
X173474603Y-103512003D01*
X173362003Y-103624603D01*
X173361998Y-103624609D01*
X173273517Y-103757032D01*
X173212571Y-103904167D01*
X173212570Y-103904170D01*
X173181500Y-104060367D01*
X173181500Y-104060370D01*
X173181500Y-104219630D01*
X173212570Y-104375831D01*
X173273517Y-104522968D01*
X173361997Y-104655389D01*
X173361998Y-104655390D01*
X173362003Y-104655396D01*
X173474603Y-104767996D01*
X173474609Y-104768001D01*
X173474611Y-104768003D01*
X173607032Y-104856483D01*
X173754169Y-104917430D01*
X173910370Y-104948500D01*
X173910371Y-104948500D01*
X174069629Y-104948500D01*
X174069630Y-104948500D01*
X174225831Y-104917430D01*
X174372968Y-104856483D01*
X174505389Y-104768003D01*
X174618003Y-104655389D01*
X174706483Y-104522968D01*
X174765824Y-104379706D01*
X174793134Y-104338835D01*
X177320328Y-101811642D01*
X177397865Y-101695600D01*
X177451273Y-101566661D01*
X177453295Y-101556498D01*
X177454876Y-101548553D01*
X177478499Y-101429786D01*
X177478500Y-101429779D01*
X177478500Y-100179868D01*
X177498502Y-100111747D01*
X177530441Y-100077931D01*
X177597671Y-100029087D01*
X177739078Y-99887680D01*
X177739083Y-99887675D01*
X177856629Y-99725887D01*
X177907734Y-99625587D01*
X177956481Y-99573974D01*
X178025396Y-99556908D01*
X178092598Y-99579809D01*
X178132265Y-99625586D01*
X178183371Y-99725887D01*
X178300917Y-99887675D01*
X178300919Y-99887677D01*
X178300921Y-99887680D01*
X178442319Y-100029078D01*
X178442322Y-100029080D01*
X178442325Y-100029083D01*
X178510430Y-100078564D01*
X178604109Y-100146627D01*
X178604113Y-100146629D01*
X178782297Y-100237419D01*
X178972484Y-100299214D01*
X178972485Y-100299214D01*
X178972490Y-100299216D01*
X179170009Y-100330500D01*
X179170012Y-100330500D01*
X179369988Y-100330500D01*
X179369991Y-100330500D01*
X179567510Y-100299216D01*
X179757703Y-100237419D01*
X179935887Y-100146629D01*
X179936478Y-100146200D01*
X179971853Y-100120498D01*
X180097675Y-100029083D01*
X180239083Y-99887675D01*
X180356629Y-99725887D01*
X180407734Y-99625587D01*
X180456481Y-99573974D01*
X180525396Y-99556908D01*
X180592598Y-99579809D01*
X180632265Y-99625586D01*
X180683371Y-99725887D01*
X180800917Y-99887675D01*
X180800919Y-99887677D01*
X180800921Y-99887680D01*
X180924595Y-100011354D01*
X180958621Y-100073666D01*
X180961500Y-100100449D01*
X180961500Y-106495811D01*
X180941498Y-106563932D01*
X180924595Y-106584906D01*
X180861936Y-106647564D01*
X180861934Y-106647567D01*
X180740873Y-106814193D01*
X180647367Y-106997708D01*
X180647364Y-106997714D01*
X180583721Y-107193587D01*
X180583720Y-107193590D01*
X180583720Y-107193592D01*
X180551500Y-107397019D01*
X180551500Y-107602981D01*
X180583720Y-107806408D01*
X180583721Y-107806412D01*
X180605563Y-107873636D01*
X180647366Y-108002290D01*
X180740871Y-108185803D01*
X180861932Y-108352430D01*
X180861934Y-108352432D01*
X180861936Y-108352435D01*
X181011070Y-108501569D01*
X181010268Y-108502370D01*
X181046136Y-108557301D01*
X181051500Y-108593674D01*
X181051500Y-120979630D01*
X181082570Y-121135831D01*
X181113043Y-121209399D01*
X181143516Y-121282968D01*
X181231997Y-121415389D01*
X189384611Y-129568003D01*
X189517032Y-129656484D01*
X189664169Y-129717429D01*
X189820370Y-129748500D01*
X189820375Y-129748500D01*
X189979625Y-129748500D01*
X189979630Y-129748500D01*
X190135831Y-129717429D01*
X190135840Y-129717425D01*
X190141758Y-129715631D01*
X190142033Y-129716539D01*
X190182451Y-129708500D01*
X206470295Y-129708500D01*
X206538416Y-129728502D01*
X206579414Y-129771500D01*
X206689735Y-129962582D01*
X206842030Y-130161056D01*
X206842049Y-130161077D01*
X207018922Y-130337950D01*
X207018932Y-130337959D01*
X207018938Y-130337965D01*
X207018941Y-130337967D01*
X207018943Y-130337969D01*
X207217417Y-130490264D01*
X207434068Y-130615347D01*
X207434079Y-130615353D01*
X207434081Y-130615354D01*
X207665216Y-130711094D01*
X207906871Y-130775845D01*
X207906877Y-130775845D01*
X207906882Y-130775847D01*
X207910925Y-130776652D01*
X207910494Y-130778814D01*
X207967388Y-130803635D01*
X208006783Y-130862699D01*
X208007992Y-130933685D01*
X207970631Y-130994056D01*
X207910782Y-131022630D01*
X207911023Y-131023839D01*
X207906981Y-131024643D01*
X207665382Y-131089379D01*
X207665378Y-131089381D01*
X207434300Y-131185096D01*
X207434289Y-131185101D01*
X207217696Y-131310151D01*
X207122448Y-131383237D01*
X207122447Y-131383238D01*
X207774369Y-132035160D01*
X207642537Y-132123249D01*
X207503249Y-132262537D01*
X207415160Y-132394369D01*
X206763238Y-131742447D01*
X206763237Y-131742448D01*
X206690151Y-131837696D01*
X206565101Y-132054289D01*
X206565096Y-132054300D01*
X206469381Y-132285378D01*
X206469379Y-132285382D01*
X206404644Y-132526976D01*
X206372000Y-132774940D01*
X206372000Y-133025059D01*
X206404644Y-133273023D01*
X206469379Y-133514617D01*
X206469381Y-133514621D01*
X206565096Y-133745699D01*
X206565101Y-133745710D01*
X206690149Y-133962299D01*
X206763238Y-134057551D01*
X207415160Y-133405629D01*
X207503249Y-133537463D01*
X207642537Y-133676751D01*
X207774369Y-133764838D01*
X207122447Y-134416760D01*
X207217695Y-134489847D01*
X207434289Y-134614898D01*
X207434300Y-134614903D01*
X207665378Y-134710618D01*
X207665382Y-134710620D01*
X207906976Y-134775355D01*
X208154940Y-134807999D01*
X208154950Y-134808000D01*
X208405050Y-134808000D01*
X208405059Y-134807999D01*
X208653023Y-134775355D01*
X208894617Y-134710620D01*
X208894621Y-134710618D01*
X209125699Y-134614903D01*
X209125710Y-134614898D01*
X209342299Y-134489850D01*
X209342306Y-134489845D01*
X209437551Y-134416761D01*
X209437551Y-134416760D01*
X208785630Y-133764839D01*
X208917463Y-133676751D01*
X209056751Y-133537463D01*
X209144839Y-133405630D01*
X209796760Y-134057551D01*
X209796761Y-134057551D01*
X209869845Y-133962306D01*
X209869850Y-133962299D01*
X209994898Y-133745710D01*
X209994903Y-133745699D01*
X210090618Y-133514621D01*
X210090620Y-133514617D01*
X210155355Y-133273023D01*
X210187999Y-133025059D01*
X210188000Y-133025050D01*
X210188000Y-132774950D01*
X210187999Y-132774940D01*
X210155355Y-132526976D01*
X210090620Y-132285382D01*
X210090618Y-132285378D01*
X209994903Y-132054300D01*
X209994898Y-132054289D01*
X209869847Y-131837695D01*
X209796760Y-131742448D01*
X209796760Y-131742447D01*
X209144838Y-132394368D01*
X209056751Y-132262537D01*
X208917463Y-132123249D01*
X208785629Y-132035160D01*
X209437551Y-131383238D01*
X209342299Y-131310149D01*
X209125710Y-131185101D01*
X209125699Y-131185096D01*
X208894621Y-131089381D01*
X208894617Y-131089379D01*
X208653018Y-131024643D01*
X208648977Y-131023839D01*
X208649324Y-131022093D01*
X208591064Y-130995550D01*
X208552626Y-130935858D01*
X208552562Y-130864862D01*
X208590892Y-130805101D01*
X208649405Y-130778314D01*
X208649075Y-130776652D01*
X208653117Y-130775847D01*
X208653120Y-130775846D01*
X208653129Y-130775845D01*
X208894784Y-130711094D01*
X209125919Y-130615354D01*
X209342581Y-130490265D01*
X209541062Y-130337965D01*
X209717965Y-130161062D01*
X209870265Y-129962581D01*
X209995354Y-129745919D01*
X210091094Y-129514784D01*
X210155845Y-129273129D01*
X210188500Y-129025090D01*
X210188500Y-128774910D01*
X210155845Y-128526871D01*
X210091094Y-128285216D01*
X209995354Y-128054081D01*
X209995353Y-128054079D01*
X209995347Y-128054068D01*
X209870264Y-127837417D01*
X209717969Y-127638943D01*
X209717967Y-127638941D01*
X209717965Y-127638938D01*
X209717959Y-127638932D01*
X209717950Y-127638922D01*
X209541077Y-127462049D01*
X209541056Y-127462030D01*
X209342582Y-127309735D01*
X209125931Y-127184652D01*
X209125920Y-127184646D01*
X209010351Y-127136776D01*
X208894784Y-127088906D01*
X208653129Y-127024155D01*
X208653126Y-127024154D01*
X208653124Y-127024154D01*
X208650228Y-127023578D01*
X208649445Y-127023168D01*
X208649145Y-127023088D01*
X208649162Y-127023020D01*
X208587320Y-126990667D01*
X208552191Y-126928971D01*
X208555994Y-126858076D01*
X208597522Y-126800492D01*
X208649146Y-126776916D01*
X208649145Y-126776912D01*
X208649169Y-126776905D01*
X208650228Y-126776422D01*
X208653114Y-126775846D01*
X208653129Y-126775845D01*
X208894784Y-126711094D01*
X209125919Y-126615354D01*
X209342581Y-126490265D01*
X209541062Y-126337965D01*
X209717965Y-126161062D01*
X209870265Y-125962581D01*
X209995354Y-125745919D01*
X210091094Y-125514784D01*
X210155845Y-125273129D01*
X210188500Y-125025090D01*
X210188500Y-124774910D01*
X210155845Y-124526871D01*
X210091094Y-124285216D01*
X209995354Y-124054081D01*
X209995353Y-124054079D01*
X209995347Y-124054068D01*
X209870264Y-123837417D01*
X209717969Y-123638943D01*
X209717967Y-123638941D01*
X209717965Y-123638938D01*
X209717959Y-123638932D01*
X209717950Y-123638922D01*
X209541077Y-123462049D01*
X209541056Y-123462030D01*
X209342582Y-123309735D01*
X209125931Y-123184652D01*
X209125920Y-123184646D01*
X208942126Y-123108516D01*
X208894784Y-123088906D01*
X208653129Y-123024155D01*
X208653122Y-123024153D01*
X208405092Y-122991500D01*
X208405090Y-122991500D01*
X208154910Y-122991500D01*
X208154907Y-122991500D01*
X207906877Y-123024153D01*
X207665216Y-123088906D01*
X207434079Y-123184646D01*
X207434068Y-123184652D01*
X207217417Y-123309735D01*
X207018943Y-123462030D01*
X207018922Y-123462049D01*
X206842049Y-123638922D01*
X206842030Y-123638943D01*
X206689735Y-123837417D01*
X206564652Y-124054068D01*
X206564646Y-124054079D01*
X206468906Y-124285216D01*
X206404153Y-124526877D01*
X206371500Y-124774907D01*
X206371500Y-125025092D01*
X206404153Y-125273122D01*
X206404155Y-125273129D01*
X206468906Y-125514784D01*
X206513523Y-125622498D01*
X206564646Y-125745920D01*
X206564652Y-125745931D01*
X206689735Y-125962582D01*
X206842030Y-126161056D01*
X206842049Y-126161077D01*
X207018922Y-126337950D01*
X207018932Y-126337959D01*
X207018938Y-126337965D01*
X207018941Y-126337967D01*
X207018943Y-126337969D01*
X207217417Y-126490264D01*
X207434068Y-126615347D01*
X207434079Y-126615353D01*
X207434081Y-126615354D01*
X207665216Y-126711094D01*
X207906871Y-126775845D01*
X207906882Y-126775846D01*
X207909775Y-126776423D01*
X207910557Y-126776832D01*
X207910855Y-126776912D01*
X207910837Y-126776978D01*
X207972682Y-126809335D01*
X208007809Y-126871033D01*
X208004004Y-126941927D01*
X207962474Y-126999510D01*
X207910853Y-127023084D01*
X207910855Y-127023088D01*
X207910832Y-127023093D01*
X207909775Y-127023577D01*
X207906880Y-127024153D01*
X207906874Y-127024154D01*
X207906871Y-127024155D01*
X207702186Y-127079000D01*
X207665216Y-127088906D01*
X207434079Y-127184646D01*
X207434068Y-127184652D01*
X207217417Y-127309735D01*
X207018943Y-127462030D01*
X207018922Y-127462049D01*
X206842049Y-127638922D01*
X206842030Y-127638943D01*
X206689735Y-127837417D01*
X206579414Y-128028500D01*
X206528032Y-128077493D01*
X206470295Y-128091500D01*
X190247082Y-128091500D01*
X190178961Y-128071498D01*
X190157987Y-128054595D01*
X182705405Y-120602013D01*
X182671379Y-120539701D01*
X182668500Y-120512918D01*
X182668500Y-108593674D01*
X182688502Y-108525553D01*
X182709200Y-108501839D01*
X182708930Y-108501569D01*
X182858063Y-108352435D01*
X182858068Y-108352430D01*
X182979129Y-108185803D01*
X183072634Y-108002290D01*
X183136280Y-107806408D01*
X183168500Y-107602981D01*
X183168500Y-107397019D01*
X183136280Y-107193592D01*
X183072634Y-106997710D01*
X182979129Y-106814197D01*
X182858068Y-106647570D01*
X182858065Y-106647567D01*
X182858063Y-106647564D01*
X182712435Y-106501936D01*
X182712432Y-106501934D01*
X182712430Y-106501932D01*
X182630438Y-106442361D01*
X182587085Y-106386140D01*
X182578500Y-106340426D01*
X182578500Y-100100449D01*
X182587283Y-100070533D01*
X182593912Y-100040064D01*
X182597726Y-100034968D01*
X182598502Y-100032328D01*
X182615405Y-100011354D01*
X182643499Y-99983260D01*
X182739078Y-99887680D01*
X182739083Y-99887675D01*
X182856629Y-99725887D01*
X182908015Y-99625036D01*
X182956761Y-99573423D01*
X183025676Y-99556357D01*
X183092877Y-99579257D01*
X183132546Y-99625037D01*
X183183797Y-99725622D01*
X183209622Y-99761166D01*
X183889000Y-99081788D01*
X183889000Y-99110160D01*
X183914964Y-99207061D01*
X183965124Y-99293940D01*
X184036060Y-99364876D01*
X184122939Y-99415036D01*
X184219840Y-99441000D01*
X184248210Y-99441000D01*
X183568831Y-100120377D01*
X183604373Y-100146199D01*
X183782487Y-100236953D01*
X183782493Y-100236956D01*
X183972604Y-100298726D01*
X183972600Y-100298726D01*
X184170052Y-100330000D01*
X184369948Y-100330000D01*
X184567397Y-100298726D01*
X184757506Y-100236956D01*
X184757512Y-100236953D01*
X184935626Y-100146200D01*
X184971166Y-100120377D01*
X184291790Y-99441000D01*
X184320160Y-99441000D01*
X184417061Y-99415036D01*
X184503940Y-99364876D01*
X184574876Y-99293940D01*
X184625036Y-99207061D01*
X184651000Y-99110160D01*
X184651000Y-99081789D01*
X185330377Y-99761166D01*
X185356201Y-99725624D01*
X185356202Y-99725622D01*
X185407733Y-99624488D01*
X185456481Y-99572872D01*
X185525396Y-99555806D01*
X185592597Y-99578706D01*
X185632267Y-99624487D01*
X185683799Y-99725624D01*
X185709622Y-99761166D01*
X186389000Y-99081788D01*
X186389000Y-99110160D01*
X186414964Y-99207061D01*
X186465124Y-99293940D01*
X186536060Y-99364876D01*
X186622939Y-99415036D01*
X186719840Y-99441000D01*
X186748210Y-99441000D01*
X186068831Y-100120377D01*
X186104373Y-100146199D01*
X186282487Y-100236953D01*
X186282493Y-100236956D01*
X186472604Y-100298726D01*
X186472600Y-100298726D01*
X186670052Y-100330000D01*
X186869948Y-100330000D01*
X187067397Y-100298726D01*
X187257506Y-100236956D01*
X187257512Y-100236953D01*
X187435626Y-100146200D01*
X187471166Y-100120377D01*
X186791790Y-99441000D01*
X186820160Y-99441000D01*
X186917061Y-99415036D01*
X187003940Y-99364876D01*
X187074876Y-99293940D01*
X187125036Y-99207061D01*
X187151000Y-99110160D01*
X187151000Y-99081789D01*
X187830377Y-99761166D01*
X187856201Y-99725624D01*
X187856202Y-99725623D01*
X187907452Y-99625039D01*
X187956200Y-99573423D01*
X188025115Y-99556357D01*
X188092316Y-99579257D01*
X188131984Y-99625036D01*
X188183371Y-99725887D01*
X188300917Y-99887675D01*
X188300919Y-99887677D01*
X188300921Y-99887680D01*
X188442319Y-100029078D01*
X188442322Y-100029080D01*
X188442325Y-100029083D01*
X188510430Y-100078564D01*
X188604109Y-100146627D01*
X188604113Y-100146629D01*
X188782297Y-100237419D01*
X188972484Y-100299214D01*
X188972485Y-100299214D01*
X188972490Y-100299216D01*
X189170009Y-100330500D01*
X189170012Y-100330500D01*
X189369988Y-100330500D01*
X189369991Y-100330500D01*
X189567510Y-100299216D01*
X189757703Y-100237419D01*
X189935887Y-100146629D01*
X189936478Y-100146200D01*
X189971853Y-100120498D01*
X190097675Y-100029083D01*
X190116568Y-100010190D01*
X190143499Y-99983260D01*
X190239078Y-99887680D01*
X190239083Y-99887675D01*
X190356629Y-99725887D01*
X190408015Y-99625036D01*
X190456761Y-99573423D01*
X190525676Y-99556357D01*
X190592877Y-99579257D01*
X190632546Y-99625037D01*
X190683797Y-99725622D01*
X190709622Y-99761166D01*
X191389000Y-99081788D01*
X191389000Y-99110160D01*
X191414964Y-99207061D01*
X191465124Y-99293940D01*
X191536060Y-99364876D01*
X191622939Y-99415036D01*
X191719840Y-99441000D01*
X191748210Y-99441000D01*
X191068831Y-100120377D01*
X191104373Y-100146199D01*
X191282487Y-100236953D01*
X191282493Y-100236956D01*
X191472604Y-100298726D01*
X191472600Y-100298726D01*
X191670052Y-100330000D01*
X191869948Y-100330000D01*
X192067397Y-100298726D01*
X192257506Y-100236956D01*
X192257512Y-100236953D01*
X192435626Y-100146200D01*
X192471166Y-100120377D01*
X191791790Y-99441000D01*
X191820160Y-99441000D01*
X191917061Y-99415036D01*
X192003940Y-99364876D01*
X192074876Y-99293940D01*
X192125036Y-99207061D01*
X192151000Y-99110160D01*
X192151000Y-99081789D01*
X192830377Y-99761166D01*
X192856200Y-99725626D01*
X192946953Y-99547512D01*
X192946956Y-99547506D01*
X193008726Y-99357397D01*
X193040000Y-99159947D01*
X193040000Y-98960052D01*
X193008726Y-98762602D01*
X192946956Y-98572493D01*
X192946953Y-98572487D01*
X192856199Y-98394373D01*
X192830377Y-98358831D01*
X192151000Y-99038208D01*
X192151000Y-99009840D01*
X192125036Y-98912939D01*
X192074876Y-98826060D01*
X192003940Y-98755124D01*
X191917061Y-98704964D01*
X191820160Y-98679000D01*
X191791790Y-98679000D01*
X192471166Y-97999622D01*
X192435624Y-97973799D01*
X192257512Y-97883046D01*
X192257506Y-97883043D01*
X192067395Y-97821273D01*
X192067399Y-97821273D01*
X191869948Y-97790000D01*
X191670052Y-97790000D01*
X191472602Y-97821273D01*
X191282493Y-97883043D01*
X191282487Y-97883046D01*
X191104376Y-97973798D01*
X191104375Y-97973799D01*
X191068832Y-97999622D01*
X191068832Y-97999623D01*
X191748209Y-98679000D01*
X191719840Y-98679000D01*
X191622939Y-98704964D01*
X191536060Y-98755124D01*
X191465124Y-98826060D01*
X191414964Y-98912939D01*
X191389000Y-99009840D01*
X191389000Y-99038209D01*
X190709623Y-98358832D01*
X190709622Y-98358832D01*
X190683799Y-98394375D01*
X190683795Y-98394381D01*
X190632546Y-98494962D01*
X190583798Y-98546577D01*
X190514883Y-98563642D01*
X190447681Y-98540741D01*
X190408015Y-98494963D01*
X190356629Y-98394113D01*
X190239083Y-98232325D01*
X190239080Y-98232322D01*
X190239078Y-98232319D01*
X190097680Y-98090921D01*
X190097677Y-98090919D01*
X190097675Y-98090917D01*
X190039296Y-98048502D01*
X189935890Y-97973372D01*
X189820304Y-97914478D01*
X189757703Y-97882581D01*
X189757700Y-97882580D01*
X189757698Y-97882579D01*
X189567513Y-97820785D01*
X189567517Y-97820785D01*
X189521521Y-97813500D01*
X189369991Y-97789500D01*
X189170009Y-97789500D01*
X188983691Y-97819010D01*
X188972484Y-97820785D01*
X188782301Y-97882579D01*
X188782295Y-97882582D01*
X188604109Y-97973372D01*
X188442322Y-98090919D01*
X188442319Y-98090921D01*
X188300921Y-98232319D01*
X188300919Y-98232322D01*
X188183371Y-98394112D01*
X188131985Y-98494962D01*
X188083237Y-98546576D01*
X188014322Y-98563642D01*
X187947121Y-98540741D01*
X187907452Y-98494961D01*
X187856199Y-98394373D01*
X187830377Y-98358831D01*
X187151000Y-99038208D01*
X187151000Y-99009840D01*
X187125036Y-98912939D01*
X187074876Y-98826060D01*
X187003940Y-98755124D01*
X186917061Y-98704964D01*
X186820160Y-98679000D01*
X186791790Y-98679000D01*
X187471166Y-97999622D01*
X187435624Y-97973799D01*
X187257512Y-97883046D01*
X187257506Y-97883043D01*
X187067395Y-97821273D01*
X187067399Y-97821273D01*
X186869948Y-97790000D01*
X186670052Y-97790000D01*
X186472602Y-97821273D01*
X186282493Y-97883043D01*
X186282487Y-97883046D01*
X186104376Y-97973798D01*
X186104375Y-97973799D01*
X186068832Y-97999622D01*
X186068832Y-97999623D01*
X186748209Y-98679000D01*
X186719840Y-98679000D01*
X186622939Y-98704964D01*
X186536060Y-98755124D01*
X186465124Y-98826060D01*
X186414964Y-98912939D01*
X186389000Y-99009840D01*
X186389000Y-99038209D01*
X185709623Y-98358832D01*
X185709622Y-98358832D01*
X185683799Y-98394375D01*
X185683798Y-98394376D01*
X185632267Y-98495512D01*
X185583518Y-98547127D01*
X185514603Y-98564193D01*
X185447402Y-98541292D01*
X185407733Y-98495512D01*
X185356199Y-98394373D01*
X185330377Y-98358831D01*
X184651000Y-99038208D01*
X184651000Y-99009840D01*
X184625036Y-98912939D01*
X184574876Y-98826060D01*
X184503940Y-98755124D01*
X184417061Y-98704964D01*
X184320160Y-98679000D01*
X184291790Y-98679000D01*
X184971166Y-97999622D01*
X184935624Y-97973799D01*
X184757512Y-97883046D01*
X184757506Y-97883043D01*
X184567395Y-97821273D01*
X184567399Y-97821273D01*
X184369948Y-97790000D01*
X184170052Y-97790000D01*
X183972602Y-97821273D01*
X183782493Y-97883043D01*
X183782487Y-97883046D01*
X183604376Y-97973798D01*
X183604375Y-97973799D01*
X183568832Y-97999622D01*
X183568832Y-97999623D01*
X184248209Y-98679000D01*
X184219840Y-98679000D01*
X184122939Y-98704964D01*
X184036060Y-98755124D01*
X183965124Y-98826060D01*
X183914964Y-98912939D01*
X183889000Y-99009840D01*
X183889000Y-99038209D01*
X183209623Y-98358832D01*
X183209622Y-98358832D01*
X183183799Y-98394375D01*
X183183795Y-98394381D01*
X183132546Y-98494962D01*
X183083798Y-98546577D01*
X183014883Y-98563642D01*
X182947681Y-98540741D01*
X182908015Y-98494963D01*
X182856629Y-98394113D01*
X182739083Y-98232325D01*
X182739080Y-98232322D01*
X182739078Y-98232319D01*
X182597680Y-98090921D01*
X182597677Y-98090919D01*
X182597675Y-98090917D01*
X182539296Y-98048502D01*
X182435890Y-97973372D01*
X182320304Y-97914478D01*
X182257703Y-97882581D01*
X182257700Y-97882580D01*
X182257698Y-97882579D01*
X182067513Y-97820785D01*
X182067517Y-97820785D01*
X182021521Y-97813500D01*
X181869991Y-97789500D01*
X181670009Y-97789500D01*
X181483691Y-97819010D01*
X181472484Y-97820785D01*
X181282301Y-97882579D01*
X181282295Y-97882582D01*
X181104109Y-97973372D01*
X180942322Y-98090919D01*
X180942319Y-98090921D01*
X180800921Y-98232319D01*
X180800919Y-98232322D01*
X180683372Y-98394110D01*
X180632267Y-98494410D01*
X180583518Y-98546025D01*
X180514603Y-98563091D01*
X180447402Y-98540190D01*
X180407733Y-98494410D01*
X180395321Y-98470050D01*
X180356629Y-98394113D01*
X180239083Y-98232325D01*
X180239080Y-98232322D01*
X180239078Y-98232319D01*
X180097680Y-98090921D01*
X180097677Y-98090919D01*
X180097675Y-98090917D01*
X180039296Y-98048502D01*
X179935890Y-97973372D01*
X179820304Y-97914478D01*
X179757703Y-97882581D01*
X179757700Y-97882580D01*
X179757698Y-97882579D01*
X179567513Y-97820785D01*
X179567517Y-97820785D01*
X179521521Y-97813500D01*
X179369991Y-97789500D01*
X179170009Y-97789500D01*
X178983691Y-97819010D01*
X178972484Y-97820785D01*
X178782301Y-97882579D01*
X178782295Y-97882582D01*
X178604109Y-97973372D01*
X178442322Y-98090919D01*
X178442319Y-98090921D01*
X178300921Y-98232319D01*
X178300919Y-98232322D01*
X178183372Y-98394110D01*
X178132267Y-98494410D01*
X178083518Y-98546025D01*
X178014603Y-98563091D01*
X177947402Y-98540190D01*
X177907733Y-98494410D01*
X177895321Y-98470050D01*
X177856629Y-98394113D01*
X177739083Y-98232325D01*
X177739080Y-98232322D01*
X177739078Y-98232319D01*
X177597680Y-98090921D01*
X177597677Y-98090919D01*
X177597675Y-98090917D01*
X177539296Y-98048502D01*
X177435890Y-97973372D01*
X177320304Y-97914478D01*
X177257703Y-97882581D01*
X177257700Y-97882580D01*
X177257698Y-97882579D01*
X177067513Y-97820785D01*
X177067517Y-97820785D01*
X177021521Y-97813500D01*
X176869991Y-97789500D01*
X176670009Y-97789500D01*
X176483691Y-97819010D01*
X176472484Y-97820785D01*
X176282301Y-97882579D01*
X176282295Y-97882582D01*
X176104109Y-97973372D01*
X175942322Y-98090919D01*
X175942319Y-98090921D01*
X175800921Y-98232319D01*
X175800919Y-98232322D01*
X175683372Y-98394110D01*
X175632267Y-98494410D01*
X175583518Y-98546025D01*
X175514603Y-98563091D01*
X175447402Y-98540190D01*
X175407733Y-98494410D01*
X175395321Y-98470050D01*
X175356629Y-98394113D01*
X175239083Y-98232325D01*
X175239080Y-98232322D01*
X175239078Y-98232319D01*
X175097680Y-98090921D01*
X175097677Y-98090919D01*
X175097675Y-98090917D01*
X175039296Y-98048502D01*
X174935890Y-97973372D01*
X174820304Y-97914478D01*
X174757703Y-97882581D01*
X174757700Y-97882580D01*
X174757698Y-97882579D01*
X174567513Y-97820785D01*
X174567517Y-97820785D01*
X174521521Y-97813500D01*
X174369991Y-97789500D01*
X174170009Y-97789500D01*
X173983691Y-97819010D01*
X173972484Y-97820785D01*
X173782301Y-97882579D01*
X173782295Y-97882582D01*
X173604109Y-97973372D01*
X173442322Y-98090919D01*
X173442319Y-98090921D01*
X173300921Y-98232319D01*
X173300919Y-98232322D01*
X173183372Y-98394110D01*
X173132267Y-98494410D01*
X173083518Y-98546025D01*
X173014603Y-98563091D01*
X172947402Y-98540190D01*
X172907733Y-98494410D01*
X172895321Y-98470050D01*
X172856629Y-98394113D01*
X172739083Y-98232325D01*
X172739080Y-98232322D01*
X172739078Y-98232319D01*
X172597681Y-98090922D01*
X172597677Y-98090919D01*
X172597675Y-98090917D01*
X172540437Y-98049330D01*
X172497085Y-97993109D01*
X172488500Y-97947396D01*
X172488500Y-95172603D01*
X172508502Y-95104482D01*
X172540439Y-95070667D01*
X172597675Y-95029083D01*
X172739083Y-94887675D01*
X172856629Y-94725887D01*
X172907734Y-94625587D01*
X172956481Y-94573974D01*
X173025396Y-94556908D01*
X173092598Y-94579809D01*
X173132265Y-94625586D01*
X173183371Y-94725887D01*
X173300917Y-94887675D01*
X173300919Y-94887677D01*
X173300921Y-94887680D01*
X173442319Y-95029078D01*
X173442322Y-95029080D01*
X173442325Y-95029083D01*
X173519195Y-95084932D01*
X173604109Y-95146627D01*
X173604113Y-95146629D01*
X173782297Y-95237419D01*
X173972484Y-95299214D01*
X173972485Y-95299214D01*
X173972490Y-95299216D01*
X174170009Y-95330500D01*
X174170012Y-95330500D01*
X174369988Y-95330500D01*
X174369991Y-95330500D01*
X174567510Y-95299216D01*
X174757703Y-95237419D01*
X174935887Y-95146629D01*
X174936478Y-95146200D01*
X174953060Y-95134152D01*
X175097675Y-95029083D01*
X175239083Y-94887675D01*
X175356629Y-94725887D01*
X175407734Y-94625587D01*
X175456481Y-94573974D01*
X175525396Y-94556908D01*
X175592598Y-94579809D01*
X175632265Y-94625586D01*
X175683371Y-94725887D01*
X175800917Y-94887675D01*
X175800919Y-94887677D01*
X175800921Y-94887680D01*
X175942319Y-95029078D01*
X175942322Y-95029080D01*
X175942325Y-95029083D01*
X176019195Y-95084932D01*
X176104109Y-95146627D01*
X176104113Y-95146629D01*
X176282297Y-95237419D01*
X176472484Y-95299214D01*
X176472485Y-95299214D01*
X176472490Y-95299216D01*
X176670009Y-95330500D01*
X176670012Y-95330500D01*
X176869988Y-95330500D01*
X176869991Y-95330500D01*
X177067510Y-95299216D01*
X177257703Y-95237419D01*
X177435887Y-95146629D01*
X177436478Y-95146200D01*
X177453060Y-95134152D01*
X177597675Y-95029083D01*
X177739083Y-94887675D01*
X177856629Y-94725887D01*
X177907734Y-94625587D01*
X177956481Y-94573974D01*
X178025396Y-94556908D01*
X178092598Y-94579809D01*
X178132265Y-94625586D01*
X178183371Y-94725887D01*
X178300917Y-94887675D01*
X178300919Y-94887677D01*
X178300921Y-94887680D01*
X178442319Y-95029078D01*
X178442322Y-95029080D01*
X178442325Y-95029083D01*
X178519195Y-95084932D01*
X178604109Y-95146627D01*
X178604113Y-95146629D01*
X178782297Y-95237419D01*
X178972484Y-95299214D01*
X178972485Y-95299214D01*
X178972490Y-95299216D01*
X179170009Y-95330500D01*
X179170012Y-95330500D01*
X179369988Y-95330500D01*
X179369991Y-95330500D01*
X179567510Y-95299216D01*
X179757703Y-95237419D01*
X179935887Y-95146629D01*
X179936478Y-95146200D01*
X179953060Y-95134152D01*
X180097675Y-95029083D01*
X180239083Y-94887675D01*
X180356629Y-94725887D01*
X180407734Y-94625587D01*
X180456481Y-94573974D01*
X180525396Y-94556908D01*
X180592598Y-94579809D01*
X180632265Y-94625586D01*
X180683371Y-94725887D01*
X180800917Y-94887675D01*
X180800919Y-94887677D01*
X180800921Y-94887680D01*
X180942319Y-95029078D01*
X180942322Y-95029080D01*
X180942325Y-95029083D01*
X181019195Y-95084932D01*
X181104109Y-95146627D01*
X181104113Y-95146629D01*
X181282297Y-95237419D01*
X181472484Y-95299214D01*
X181472485Y-95299214D01*
X181472490Y-95299216D01*
X181670009Y-95330500D01*
X181670012Y-95330500D01*
X181869988Y-95330500D01*
X181869991Y-95330500D01*
X182067510Y-95299216D01*
X182257703Y-95237419D01*
X182435887Y-95146629D01*
X182436478Y-95146200D01*
X182453060Y-95134152D01*
X182597675Y-95029083D01*
X182616310Y-95010448D01*
X182643499Y-94983260D01*
X182739078Y-94887680D01*
X182739083Y-94887675D01*
X182856629Y-94725887D01*
X182908015Y-94625036D01*
X182956761Y-94573423D01*
X183025676Y-94556357D01*
X183092877Y-94579257D01*
X183132546Y-94625037D01*
X183183797Y-94725622D01*
X183209622Y-94761166D01*
X183889000Y-94081788D01*
X183889000Y-94110160D01*
X183914964Y-94207061D01*
X183965124Y-94293940D01*
X184036060Y-94364876D01*
X184122939Y-94415036D01*
X184219840Y-94441000D01*
X184248210Y-94441000D01*
X183568831Y-95120377D01*
X183604373Y-95146199D01*
X183782487Y-95236953D01*
X183782493Y-95236956D01*
X183972604Y-95298726D01*
X183972600Y-95298726D01*
X184170052Y-95330000D01*
X184369948Y-95330000D01*
X184567397Y-95298726D01*
X184757506Y-95236956D01*
X184757512Y-95236953D01*
X184935626Y-95146200D01*
X184971166Y-95120377D01*
X184291790Y-94441000D01*
X184320160Y-94441000D01*
X184417061Y-94415036D01*
X184503940Y-94364876D01*
X184574876Y-94293940D01*
X184625036Y-94207061D01*
X184651000Y-94110160D01*
X184651000Y-94081789D01*
X185330377Y-94761166D01*
X185356201Y-94725624D01*
X185356202Y-94725622D01*
X185407733Y-94624488D01*
X185456481Y-94572872D01*
X185525396Y-94555806D01*
X185592597Y-94578706D01*
X185632267Y-94624487D01*
X185683799Y-94725624D01*
X185709622Y-94761166D01*
X186389000Y-94081788D01*
X186389000Y-94110160D01*
X186414964Y-94207061D01*
X186465124Y-94293940D01*
X186536060Y-94364876D01*
X186622939Y-94415036D01*
X186719840Y-94441000D01*
X186748210Y-94441000D01*
X186068831Y-95120377D01*
X186104373Y-95146199D01*
X186282487Y-95236953D01*
X186282493Y-95236956D01*
X186472604Y-95298726D01*
X186472600Y-95298726D01*
X186670052Y-95330000D01*
X186869948Y-95330000D01*
X187067397Y-95298726D01*
X187257506Y-95236956D01*
X187257512Y-95236953D01*
X187435626Y-95146200D01*
X187471166Y-95120377D01*
X186791790Y-94441000D01*
X186820160Y-94441000D01*
X186917061Y-94415036D01*
X187003940Y-94364876D01*
X187074876Y-94293940D01*
X187125036Y-94207061D01*
X187151000Y-94110160D01*
X187151000Y-94081789D01*
X187830377Y-94761166D01*
X187856201Y-94725624D01*
X187856202Y-94725623D01*
X187907452Y-94625039D01*
X187956200Y-94573423D01*
X188025115Y-94556357D01*
X188092316Y-94579257D01*
X188131984Y-94625036D01*
X188183371Y-94725887D01*
X188300917Y-94887675D01*
X188300919Y-94887677D01*
X188300921Y-94887680D01*
X188442319Y-95029078D01*
X188442322Y-95029080D01*
X188442325Y-95029083D01*
X188519195Y-95084932D01*
X188604109Y-95146627D01*
X188604113Y-95146629D01*
X188782297Y-95237419D01*
X188972484Y-95299214D01*
X188972485Y-95299214D01*
X188972490Y-95299216D01*
X189170009Y-95330500D01*
X189170012Y-95330500D01*
X189369988Y-95330500D01*
X189369991Y-95330500D01*
X189567510Y-95299216D01*
X189757703Y-95237419D01*
X189935887Y-95146629D01*
X189936478Y-95146200D01*
X189953060Y-95134152D01*
X190097675Y-95029083D01*
X190116310Y-95010448D01*
X190143499Y-94983260D01*
X190239078Y-94887680D01*
X190239083Y-94887675D01*
X190356629Y-94725887D01*
X190408015Y-94625036D01*
X190456761Y-94573423D01*
X190525676Y-94556357D01*
X190592877Y-94579257D01*
X190632546Y-94625037D01*
X190683797Y-94725622D01*
X190709622Y-94761166D01*
X191389000Y-94081788D01*
X191389000Y-94110160D01*
X191414964Y-94207061D01*
X191465124Y-94293940D01*
X191536060Y-94364876D01*
X191622939Y-94415036D01*
X191719840Y-94441000D01*
X191748210Y-94441000D01*
X191068831Y-95120377D01*
X191104373Y-95146199D01*
X191282487Y-95236953D01*
X191282493Y-95236956D01*
X191472604Y-95298726D01*
X191472600Y-95298726D01*
X191670052Y-95330000D01*
X191869948Y-95330000D01*
X192067397Y-95298726D01*
X192257506Y-95236956D01*
X192257512Y-95236953D01*
X192435626Y-95146200D01*
X192471166Y-95120377D01*
X191791790Y-94441000D01*
X191820160Y-94441000D01*
X191917061Y-94415036D01*
X192003940Y-94364876D01*
X192074876Y-94293940D01*
X192125036Y-94207061D01*
X192151000Y-94110160D01*
X192151000Y-94081789D01*
X192830377Y-94761166D01*
X192856200Y-94725626D01*
X192946953Y-94547512D01*
X192946956Y-94547506D01*
X193008726Y-94357397D01*
X193040000Y-94159947D01*
X193040000Y-93960052D01*
X193008726Y-93762602D01*
X192946956Y-93572493D01*
X192946953Y-93572487D01*
X192856199Y-93394373D01*
X192830377Y-93358831D01*
X192151000Y-94038208D01*
X192151000Y-94009840D01*
X192125036Y-93912939D01*
X192074876Y-93826060D01*
X192003940Y-93755124D01*
X191917061Y-93704964D01*
X191820160Y-93679000D01*
X191791790Y-93679000D01*
X192471166Y-92999622D01*
X192435624Y-92973799D01*
X192257512Y-92883046D01*
X192257506Y-92883043D01*
X192067395Y-92821273D01*
X192067399Y-92821273D01*
X191869948Y-92790000D01*
X191670052Y-92790000D01*
X191472602Y-92821273D01*
X191282493Y-92883043D01*
X191282487Y-92883046D01*
X191104376Y-92973798D01*
X191104375Y-92973799D01*
X191068832Y-92999622D01*
X191068832Y-92999623D01*
X191748209Y-93679000D01*
X191719840Y-93679000D01*
X191622939Y-93704964D01*
X191536060Y-93755124D01*
X191465124Y-93826060D01*
X191414964Y-93912939D01*
X191389000Y-94009840D01*
X191389000Y-94038209D01*
X190709623Y-93358832D01*
X190709622Y-93358832D01*
X190683799Y-93394375D01*
X190683795Y-93394381D01*
X190632546Y-93494962D01*
X190583798Y-93546577D01*
X190514883Y-93563642D01*
X190447681Y-93540741D01*
X190408015Y-93494963D01*
X190356629Y-93394113D01*
X190239083Y-93232325D01*
X190239080Y-93232322D01*
X190239078Y-93232319D01*
X190097680Y-93090921D01*
X190097677Y-93090919D01*
X190097675Y-93090917D01*
X190046428Y-93053683D01*
X189935890Y-92973372D01*
X189831934Y-92920404D01*
X189757703Y-92882581D01*
X189757700Y-92882580D01*
X189757698Y-92882579D01*
X189567513Y-92820785D01*
X189567517Y-92820785D01*
X189530743Y-92814960D01*
X189369991Y-92789500D01*
X189170009Y-92789500D01*
X188972490Y-92820784D01*
X188972484Y-92820785D01*
X188782301Y-92882579D01*
X188782295Y-92882582D01*
X188604109Y-92973372D01*
X188442322Y-93090919D01*
X188442319Y-93090921D01*
X188300921Y-93232319D01*
X188300919Y-93232322D01*
X188183371Y-93394112D01*
X188131985Y-93494962D01*
X188083237Y-93546576D01*
X188014322Y-93563642D01*
X187947121Y-93540741D01*
X187907452Y-93494961D01*
X187856199Y-93394373D01*
X187830377Y-93358831D01*
X187151000Y-94038208D01*
X187151000Y-94009840D01*
X187125036Y-93912939D01*
X187074876Y-93826060D01*
X187003940Y-93755124D01*
X186917061Y-93704964D01*
X186820160Y-93679000D01*
X186791790Y-93679000D01*
X187471166Y-92999622D01*
X187435624Y-92973799D01*
X187257512Y-92883046D01*
X187257506Y-92883043D01*
X187067395Y-92821273D01*
X187067399Y-92821273D01*
X186869948Y-92790000D01*
X186670052Y-92790000D01*
X186472602Y-92821273D01*
X186282493Y-92883043D01*
X186282487Y-92883046D01*
X186104376Y-92973798D01*
X186104375Y-92973799D01*
X186068832Y-92999622D01*
X186068832Y-92999623D01*
X186748209Y-93679000D01*
X186719840Y-93679000D01*
X186622939Y-93704964D01*
X186536060Y-93755124D01*
X186465124Y-93826060D01*
X186414964Y-93912939D01*
X186389000Y-94009840D01*
X186389000Y-94038209D01*
X185709623Y-93358832D01*
X185709622Y-93358832D01*
X185683799Y-93394375D01*
X185683798Y-93394376D01*
X185632267Y-93495512D01*
X185583518Y-93547127D01*
X185514603Y-93564193D01*
X185447402Y-93541292D01*
X185407733Y-93495512D01*
X185356199Y-93394373D01*
X185330377Y-93358831D01*
X184651000Y-94038208D01*
X184651000Y-94009840D01*
X184625036Y-93912939D01*
X184574876Y-93826060D01*
X184503940Y-93755124D01*
X184417061Y-93704964D01*
X184320160Y-93679000D01*
X184291790Y-93679000D01*
X184971166Y-92999622D01*
X184935624Y-92973799D01*
X184757512Y-92883046D01*
X184757506Y-92883043D01*
X184567395Y-92821273D01*
X184567399Y-92821273D01*
X184369948Y-92790000D01*
X184170052Y-92790000D01*
X183972602Y-92821273D01*
X183782493Y-92883043D01*
X183782487Y-92883046D01*
X183604376Y-92973798D01*
X183604375Y-92973799D01*
X183568832Y-92999622D01*
X183568832Y-92999623D01*
X184248209Y-93679000D01*
X184219840Y-93679000D01*
X184122939Y-93704964D01*
X184036060Y-93755124D01*
X183965124Y-93826060D01*
X183914964Y-93912939D01*
X183889000Y-94009840D01*
X183889000Y-94038209D01*
X183209623Y-93358832D01*
X183209622Y-93358832D01*
X183183799Y-93394375D01*
X183183795Y-93394381D01*
X183132546Y-93494962D01*
X183083798Y-93546577D01*
X183014883Y-93563642D01*
X182947681Y-93540741D01*
X182908015Y-93494963D01*
X182856629Y-93394113D01*
X182739083Y-93232325D01*
X182739080Y-93232322D01*
X182739078Y-93232319D01*
X182597680Y-93090921D01*
X182597677Y-93090919D01*
X182597675Y-93090917D01*
X182546428Y-93053683D01*
X182435890Y-92973372D01*
X182331934Y-92920404D01*
X182257703Y-92882581D01*
X182257700Y-92882580D01*
X182257698Y-92882579D01*
X182067513Y-92820785D01*
X182067517Y-92820785D01*
X182030743Y-92814960D01*
X181869991Y-92789500D01*
X181670009Y-92789500D01*
X181472490Y-92820784D01*
X181472484Y-92820785D01*
X181282301Y-92882579D01*
X181282295Y-92882582D01*
X181104109Y-92973372D01*
X180942322Y-93090919D01*
X180942319Y-93090921D01*
X180800921Y-93232319D01*
X180800919Y-93232322D01*
X180683372Y-93394110D01*
X180632267Y-93494410D01*
X180583518Y-93546025D01*
X180514603Y-93563091D01*
X180447402Y-93540190D01*
X180407733Y-93494410D01*
X180356629Y-93394113D01*
X180239083Y-93232325D01*
X180239080Y-93232322D01*
X180239078Y-93232319D01*
X180097680Y-93090921D01*
X180097677Y-93090919D01*
X180097675Y-93090917D01*
X180046428Y-93053683D01*
X179935890Y-92973372D01*
X179831934Y-92920404D01*
X179757703Y-92882581D01*
X179757700Y-92882580D01*
X179757698Y-92882579D01*
X179567513Y-92820785D01*
X179567517Y-92820785D01*
X179530743Y-92814960D01*
X179369991Y-92789500D01*
X179170009Y-92789500D01*
X178972490Y-92820784D01*
X178972484Y-92820785D01*
X178782301Y-92882579D01*
X178782295Y-92882582D01*
X178604109Y-92973372D01*
X178442322Y-93090919D01*
X178442319Y-93090921D01*
X178300921Y-93232319D01*
X178300919Y-93232322D01*
X178183372Y-93394110D01*
X178132267Y-93494410D01*
X178083518Y-93546025D01*
X178014603Y-93563091D01*
X177947402Y-93540190D01*
X177907733Y-93494410D01*
X177856629Y-93394113D01*
X177739083Y-93232325D01*
X177739080Y-93232322D01*
X177739078Y-93232319D01*
X177597680Y-93090921D01*
X177597677Y-93090919D01*
X177597675Y-93090917D01*
X177546428Y-93053683D01*
X177435890Y-92973372D01*
X177331934Y-92920404D01*
X177257703Y-92882581D01*
X177257700Y-92882580D01*
X177257698Y-92882579D01*
X177067513Y-92820785D01*
X177067517Y-92820785D01*
X177030743Y-92814960D01*
X176869991Y-92789500D01*
X176670009Y-92789500D01*
X176472490Y-92820784D01*
X176472484Y-92820785D01*
X176282301Y-92882579D01*
X176282295Y-92882582D01*
X176104109Y-92973372D01*
X175942322Y-93090919D01*
X175942319Y-93090921D01*
X175800921Y-93232319D01*
X175800919Y-93232322D01*
X175683372Y-93394110D01*
X175632267Y-93494410D01*
X175583518Y-93546025D01*
X175514603Y-93563091D01*
X175447402Y-93540190D01*
X175407733Y-93494410D01*
X175356629Y-93394113D01*
X175239083Y-93232325D01*
X175239080Y-93232322D01*
X175239078Y-93232319D01*
X175097680Y-93090921D01*
X175097677Y-93090919D01*
X175097675Y-93090917D01*
X175046428Y-93053683D01*
X174935890Y-92973372D01*
X174831934Y-92920404D01*
X174757703Y-92882581D01*
X174757700Y-92882580D01*
X174757698Y-92882579D01*
X174567513Y-92820785D01*
X174567517Y-92820785D01*
X174530743Y-92814960D01*
X174369991Y-92789500D01*
X174170009Y-92789500D01*
X173972490Y-92820784D01*
X173972484Y-92820785D01*
X173782301Y-92882579D01*
X173782295Y-92882582D01*
X173604109Y-92973372D01*
X173442322Y-93090919D01*
X173442319Y-93090921D01*
X173300921Y-93232319D01*
X173300919Y-93232322D01*
X173183372Y-93394110D01*
X173132267Y-93494410D01*
X173083518Y-93546025D01*
X173014603Y-93563091D01*
X172947402Y-93540190D01*
X172907733Y-93494410D01*
X172856629Y-93394113D01*
X172739083Y-93232325D01*
X172739080Y-93232322D01*
X172739078Y-93232319D01*
X172615405Y-93108646D01*
X172581379Y-93046334D01*
X172578500Y-93019551D01*
X172578500Y-92315371D01*
X172578499Y-92315367D01*
X172547430Y-92159169D01*
X172488845Y-92017735D01*
X172487175Y-92013067D01*
X172486483Y-92012031D01*
X172398003Y-91879611D01*
X171965389Y-91446997D01*
X171832968Y-91358516D01*
X171759399Y-91328043D01*
X171685833Y-91297571D01*
X171685831Y-91297570D01*
X171529632Y-91266500D01*
X171529630Y-91266500D01*
X152485863Y-91266500D01*
X152485843Y-91266499D01*
X152479630Y-91266499D01*
X152320370Y-91266499D01*
X152320369Y-91266499D01*
X152190086Y-91292414D01*
X152190085Y-91292415D01*
X152164169Y-91297570D01*
X152164167Y-91297570D01*
X152164166Y-91297571D01*
X152121074Y-91315419D01*
X152121073Y-91315420D01*
X152017032Y-91358516D01*
X152017030Y-91358517D01*
X151884615Y-91446994D01*
X151884608Y-91446999D01*
X151141999Y-92189608D01*
X151141994Y-92189615D01*
X151053516Y-92322032D01*
X151023043Y-92395600D01*
X150992572Y-92469163D01*
X150992570Y-92469168D01*
X150961500Y-92625367D01*
X150961500Y-93019551D01*
X150941498Y-93087672D01*
X150924595Y-93108646D01*
X150800921Y-93232319D01*
X150800919Y-93232322D01*
X150683372Y-93394110D01*
X150632267Y-93494410D01*
X150583518Y-93546025D01*
X150514603Y-93563091D01*
X150447402Y-93540190D01*
X150407733Y-93494410D01*
X150356629Y-93394113D01*
X150239083Y-93232325D01*
X150239080Y-93232322D01*
X150239078Y-93232319D01*
X150097680Y-93090921D01*
X150097677Y-93090919D01*
X150097675Y-93090917D01*
X150046428Y-93053683D01*
X149935890Y-92973372D01*
X149831934Y-92920404D01*
X149757703Y-92882581D01*
X149757700Y-92882580D01*
X149757698Y-92882579D01*
X149567513Y-92820785D01*
X149567517Y-92820785D01*
X149530743Y-92814960D01*
X149369991Y-92789500D01*
X149170009Y-92789500D01*
X148972490Y-92820784D01*
X148972484Y-92820785D01*
X148782301Y-92882579D01*
X148782295Y-92882582D01*
X148604109Y-92973372D01*
X148442322Y-93090919D01*
X148442319Y-93090921D01*
X148300921Y-93232319D01*
X148300919Y-93232322D01*
X148183372Y-93394110D01*
X148132267Y-93494410D01*
X148083518Y-93546025D01*
X148014603Y-93563091D01*
X147947402Y-93540190D01*
X147907733Y-93494410D01*
X147856629Y-93394113D01*
X147739083Y-93232325D01*
X147739080Y-93232322D01*
X147739078Y-93232319D01*
X147597680Y-93090921D01*
X147597677Y-93090919D01*
X147597675Y-93090917D01*
X147546428Y-93053683D01*
X147435890Y-92973372D01*
X147331934Y-92920404D01*
X147257703Y-92882581D01*
X147257700Y-92882580D01*
X147257698Y-92882579D01*
X147067513Y-92820785D01*
X147067517Y-92820785D01*
X147030743Y-92814960D01*
X146869991Y-92789500D01*
X146670009Y-92789500D01*
X146472490Y-92820784D01*
X146472484Y-92820785D01*
X146282301Y-92882579D01*
X146282295Y-92882582D01*
X146104109Y-92973372D01*
X145942322Y-93090919D01*
X145942319Y-93090921D01*
X145800921Y-93232319D01*
X145800919Y-93232322D01*
X145683371Y-93394112D01*
X145631985Y-93494962D01*
X145583237Y-93546576D01*
X145514322Y-93563642D01*
X145447121Y-93540741D01*
X145407452Y-93494961D01*
X145356199Y-93394373D01*
X145330377Y-93358831D01*
X144651000Y-94038209D01*
X144651000Y-94009840D01*
X144625036Y-93912939D01*
X144574876Y-93826060D01*
X144503940Y-93755124D01*
X144417061Y-93704964D01*
X144320160Y-93679000D01*
X144291790Y-93679000D01*
X144971166Y-92999622D01*
X144935624Y-92973799D01*
X144757512Y-92883046D01*
X144757506Y-92883043D01*
X144567395Y-92821273D01*
X144567399Y-92821273D01*
X144369948Y-92790000D01*
X144170052Y-92790000D01*
X143972602Y-92821273D01*
X143782493Y-92883043D01*
X143782487Y-92883046D01*
X143604376Y-92973798D01*
X143604375Y-92973799D01*
X143568832Y-92999622D01*
X143568832Y-92999623D01*
X144248209Y-93679000D01*
X144219840Y-93679000D01*
X144122939Y-93704964D01*
X144036060Y-93755124D01*
X143965124Y-93826060D01*
X143914964Y-93912939D01*
X143889000Y-94009840D01*
X143889000Y-94038209D01*
X143209623Y-93358832D01*
X143209622Y-93358832D01*
X143183799Y-93394375D01*
X143183795Y-93394381D01*
X143132546Y-93494962D01*
X143083798Y-93546577D01*
X143014883Y-93563642D01*
X142947681Y-93540741D01*
X142908015Y-93494963D01*
X142856629Y-93394113D01*
X142739083Y-93232325D01*
X142739080Y-93232322D01*
X142739078Y-93232319D01*
X142597680Y-93090921D01*
X142597677Y-93090919D01*
X142597675Y-93090917D01*
X142546428Y-93053683D01*
X142435890Y-92973372D01*
X142331934Y-92920404D01*
X142257703Y-92882581D01*
X142257700Y-92882580D01*
X142257698Y-92882579D01*
X142067513Y-92820785D01*
X142067517Y-92820785D01*
X142030743Y-92814960D01*
X141869991Y-92789500D01*
X141670009Y-92789500D01*
X141472490Y-92820784D01*
X141472484Y-92820785D01*
X141282301Y-92882579D01*
X141282295Y-92882582D01*
X141104109Y-92973372D01*
X140942322Y-93090919D01*
X140942319Y-93090921D01*
X140800921Y-93232319D01*
X140800919Y-93232322D01*
X140683372Y-93394110D01*
X140632267Y-93494410D01*
X140583518Y-93546025D01*
X140514603Y-93563091D01*
X140447402Y-93540190D01*
X140407733Y-93494410D01*
X140356629Y-93394113D01*
X140239083Y-93232325D01*
X140239080Y-93232322D01*
X140239078Y-93232319D01*
X140097680Y-93090921D01*
X140097677Y-93090919D01*
X140097675Y-93090917D01*
X140046428Y-93053683D01*
X139935890Y-92973372D01*
X139831934Y-92920404D01*
X139757703Y-92882581D01*
X139757700Y-92882580D01*
X139757698Y-92882579D01*
X139567513Y-92820785D01*
X139567517Y-92820785D01*
X139530743Y-92814960D01*
X139369991Y-92789500D01*
X139170009Y-92789500D01*
X138972490Y-92820784D01*
X138972484Y-92820785D01*
X138782301Y-92882579D01*
X138782295Y-92882582D01*
X138604109Y-92973372D01*
X138442322Y-93090919D01*
X138442319Y-93090921D01*
X138300921Y-93232319D01*
X138300919Y-93232322D01*
X138183372Y-93394110D01*
X138132267Y-93494410D01*
X138083518Y-93546025D01*
X138014603Y-93563091D01*
X137947402Y-93540190D01*
X137907733Y-93494410D01*
X137856629Y-93394113D01*
X137739083Y-93232325D01*
X137739080Y-93232322D01*
X137739078Y-93232319D01*
X137597681Y-93090922D01*
X137597677Y-93090919D01*
X137597675Y-93090917D01*
X137511803Y-93028527D01*
X137480438Y-93005739D01*
X137437085Y-92949516D01*
X137428500Y-92903803D01*
X137428500Y-90350142D01*
X137428499Y-90350139D01*
X137403194Y-90222923D01*
X137353555Y-90103083D01*
X137348348Y-90095290D01*
X147831500Y-90095290D01*
X147831500Y-90244709D01*
X147852472Y-90350139D01*
X147860649Y-90391246D01*
X147917826Y-90529284D01*
X148000835Y-90653516D01*
X148106484Y-90759165D01*
X148230716Y-90842174D01*
X148368754Y-90899351D01*
X148515294Y-90928500D01*
X148664706Y-90928500D01*
X148811246Y-90899351D01*
X148949284Y-90842174D01*
X148949284Y-90842173D01*
X148955003Y-90839805D01*
X148955594Y-90841231D01*
X149006428Y-90828500D01*
X156263572Y-90828500D01*
X156314405Y-90841231D01*
X156314997Y-90839805D01*
X156320715Y-90842173D01*
X156320716Y-90842174D01*
X156458754Y-90899351D01*
X156605294Y-90928500D01*
X156754706Y-90928500D01*
X156901246Y-90899351D01*
X157039284Y-90842174D01*
X157163516Y-90759165D01*
X157269165Y-90653516D01*
X157352174Y-90529284D01*
X157409351Y-90391246D01*
X157438500Y-90244706D01*
X157438500Y-90095294D01*
X157409351Y-89948754D01*
X157352174Y-89810716D01*
X157269165Y-89686484D01*
X157163516Y-89580835D01*
X157039284Y-89497826D01*
X156901249Y-89440650D01*
X156901246Y-89440649D01*
X156754709Y-89411500D01*
X156754706Y-89411500D01*
X156605294Y-89411500D01*
X156605290Y-89411500D01*
X156458753Y-89440649D01*
X156458750Y-89440650D01*
X156314997Y-89500195D01*
X156314405Y-89498768D01*
X156263572Y-89511500D01*
X149006428Y-89511500D01*
X148955594Y-89498768D01*
X148955003Y-89500195D01*
X148811249Y-89440650D01*
X148811246Y-89440649D01*
X148664709Y-89411500D01*
X148664706Y-89411500D01*
X148515294Y-89411500D01*
X148515290Y-89411500D01*
X148368753Y-89440649D01*
X148368750Y-89440650D01*
X148230715Y-89497826D01*
X148106488Y-89580832D01*
X148106481Y-89580837D01*
X148000837Y-89686481D01*
X148000832Y-89686488D01*
X147917826Y-89810715D01*
X147860650Y-89948750D01*
X147860649Y-89948753D01*
X147831500Y-90095290D01*
X137348348Y-90095290D01*
X137281490Y-89995231D01*
X137274551Y-89988292D01*
X137266763Y-89975588D01*
X137263141Y-89962208D01*
X137258149Y-89953880D01*
X137256720Y-89954473D01*
X137246497Y-89929793D01*
X137197174Y-89810716D01*
X137114165Y-89686484D01*
X137008516Y-89580835D01*
X136884284Y-89497826D01*
X136746249Y-89440650D01*
X136746246Y-89440649D01*
X136599709Y-89411500D01*
X136599706Y-89411500D01*
X136450294Y-89411500D01*
X136450290Y-89411500D01*
X136303753Y-89440649D01*
X136303750Y-89440650D01*
X136165715Y-89497826D01*
X136041488Y-89580832D01*
X136041481Y-89580837D01*
X135935837Y-89686481D01*
X135935832Y-89686488D01*
X135852826Y-89810715D01*
X135795650Y-89948750D01*
X135795649Y-89948753D01*
X135766500Y-90095290D01*
X135766500Y-90244709D01*
X135787472Y-90350139D01*
X135795649Y-90391246D01*
X135852826Y-90529284D01*
X135935835Y-90653516D01*
X136041484Y-90759165D01*
X136055502Y-90768532D01*
X136101030Y-90823008D01*
X136111500Y-90873296D01*
X136111500Y-92903803D01*
X136091498Y-92971924D01*
X136059562Y-93005739D01*
X135942318Y-93090922D01*
X135800921Y-93232319D01*
X135800919Y-93232322D01*
X135683371Y-93394112D01*
X135631985Y-93494962D01*
X135583237Y-93546576D01*
X135514322Y-93563642D01*
X135447121Y-93540741D01*
X135407452Y-93494961D01*
X135356199Y-93394373D01*
X135330376Y-93358831D01*
X134651000Y-94038207D01*
X134651000Y-94009840D01*
X134625036Y-93912939D01*
X134574876Y-93826060D01*
X134503940Y-93755124D01*
X134417061Y-93704964D01*
X134320160Y-93679000D01*
X134291790Y-93679000D01*
X134971166Y-92999622D01*
X134935624Y-92973799D01*
X134757512Y-92883046D01*
X134757506Y-92883043D01*
X134567395Y-92821273D01*
X134567399Y-92821273D01*
X134369948Y-92790000D01*
X134170052Y-92790000D01*
X133972602Y-92821273D01*
X133782493Y-92883043D01*
X133782487Y-92883046D01*
X133604376Y-92973798D01*
X133604375Y-92973799D01*
X133568832Y-92999622D01*
X133568832Y-92999623D01*
X134248209Y-93679000D01*
X134219840Y-93679000D01*
X134122939Y-93704964D01*
X134036060Y-93755124D01*
X133965124Y-93826060D01*
X133914964Y-93912939D01*
X133889000Y-94009840D01*
X133889000Y-94038210D01*
X133209622Y-93358832D01*
X133183799Y-93394375D01*
X133183798Y-93394376D01*
X133132267Y-93495512D01*
X133083518Y-93547127D01*
X133014603Y-93564193D01*
X132947402Y-93541292D01*
X132907733Y-93495512D01*
X132856199Y-93394373D01*
X132830376Y-93358831D01*
X132151000Y-94038207D01*
X132151000Y-94009840D01*
X132125036Y-93912939D01*
X132074876Y-93826060D01*
X132003940Y-93755124D01*
X131917061Y-93704964D01*
X131820160Y-93679000D01*
X131791790Y-93679000D01*
X132471166Y-92999622D01*
X132435624Y-92973799D01*
X132257512Y-92883046D01*
X132257506Y-92883043D01*
X132067395Y-92821273D01*
X132067399Y-92821273D01*
X131869948Y-92790000D01*
X131670052Y-92790000D01*
X131472602Y-92821273D01*
X131282493Y-92883043D01*
X131282487Y-92883046D01*
X131104376Y-92973798D01*
X131104375Y-92973799D01*
X131068832Y-92999622D01*
X131068832Y-92999623D01*
X131748209Y-93679000D01*
X131719840Y-93679000D01*
X131622939Y-93704964D01*
X131536060Y-93755124D01*
X131465124Y-93826060D01*
X131414964Y-93912939D01*
X131389000Y-94009840D01*
X131389000Y-94038210D01*
X130709622Y-93358832D01*
X130683799Y-93394375D01*
X130683798Y-93394376D01*
X130593046Y-93572487D01*
X130593043Y-93572493D01*
X130531273Y-93762602D01*
X130500000Y-93960052D01*
X130500000Y-94159947D01*
X130531273Y-94357397D01*
X130557487Y-94438075D01*
X130559514Y-94509043D01*
X130522852Y-94569841D01*
X130459140Y-94601166D01*
X130437654Y-94603011D01*
X126831928Y-94603011D01*
X126763807Y-94583009D01*
X126717314Y-94529353D01*
X126707210Y-94459079D01*
X126736704Y-94394499D01*
X126742833Y-94387916D01*
X130165344Y-90965405D01*
X130227656Y-90931379D01*
X130243605Y-90929664D01*
X130243551Y-90929106D01*
X130249699Y-90928500D01*
X130249706Y-90928500D01*
X130396246Y-90899351D01*
X130534284Y-90842174D01*
X130658516Y-90759165D01*
X130764165Y-90653516D01*
X130847174Y-90529284D01*
X130904351Y-90391246D01*
X130933500Y-90244706D01*
X130933500Y-90095294D01*
X130904351Y-89948754D01*
X130847174Y-89810716D01*
X130764165Y-89686484D01*
X130658516Y-89580835D01*
X130534284Y-89497826D01*
X130396249Y-89440650D01*
X130396246Y-89440649D01*
X130249709Y-89411500D01*
X130249706Y-89411500D01*
X130100294Y-89411500D01*
X130100290Y-89411500D01*
X129953753Y-89440649D01*
X129953750Y-89440650D01*
X129815716Y-89497826D01*
X129691489Y-89580832D01*
X129691483Y-89580836D01*
X129691481Y-89580837D01*
X129630817Y-89641500D01*
X129611737Y-89657160D01*
X129609721Y-89658507D01*
X129609718Y-89658509D01*
X125303123Y-93965106D01*
X125240811Y-93999132D01*
X125214028Y-94002011D01*
X109744628Y-94002011D01*
X109617411Y-94027317D01*
X109617408Y-94027318D01*
X109497571Y-94076956D01*
X109389721Y-94149019D01*
X109389715Y-94149024D01*
X106803515Y-96735223D01*
X106803510Y-96735230D01*
X106746610Y-96820387D01*
X106731445Y-96843082D01*
X106681807Y-96962919D01*
X106681806Y-96962922D01*
X106656500Y-97090139D01*
X106656500Y-131120050D01*
X106636498Y-131188171D01*
X106619595Y-131209145D01*
X105809145Y-132019595D01*
X105746833Y-132053621D01*
X105720050Y-132056500D01*
X103377968Y-132056500D01*
X103309847Y-132036498D01*
X103307997Y-132035286D01*
X103252968Y-131998517D01*
X103105831Y-131937570D01*
X103027730Y-131922035D01*
X102949632Y-131906500D01*
X102949630Y-131906500D01*
X102790370Y-131906500D01*
X102790367Y-131906500D01*
X102673219Y-131929802D01*
X102634169Y-131937570D01*
X102487034Y-131998516D01*
X102487032Y-131998517D01*
X102354609Y-132086998D01*
X102354603Y-132087003D01*
X102242003Y-132199603D01*
X102241998Y-132199609D01*
X102153517Y-132332032D01*
X102092571Y-132479167D01*
X102092570Y-132479170D01*
X102061500Y-132635367D01*
X100900000Y-132635367D01*
X100900000Y-87537262D01*
X100920002Y-87469141D01*
X100973658Y-87422648D01*
X101043932Y-87412544D01*
X101108512Y-87442038D01*
X101139522Y-87482593D01*
X101251483Y-87715082D01*
X101401352Y-87953598D01*
X101401356Y-87953604D01*
X101505985Y-88084802D01*
X101505986Y-88084803D01*
X102045925Y-87544863D01*
X102131457Y-87656331D01*
X102293669Y-87818543D01*
X102405134Y-87904073D01*
X101865195Y-88444012D01*
X101865196Y-88444013D01*
X101996395Y-88548643D01*
X101996401Y-88548647D01*
X102234917Y-88698517D01*
X102488708Y-88820736D01*
X102488735Y-88820747D01*
X102754595Y-88913776D01*
X103029229Y-88976460D01*
X103029226Y-88976460D01*
X103309152Y-89008000D01*
X103590848Y-89008000D01*
X103870771Y-88976460D01*
X104145404Y-88913776D01*
X104411264Y-88820747D01*
X104411291Y-88820736D01*
X104665082Y-88698516D01*
X104903587Y-88548655D01*
X104903596Y-88548648D01*
X105034802Y-88444013D01*
X105034803Y-88444012D01*
X104494864Y-87904073D01*
X104606331Y-87818543D01*
X104768543Y-87656331D01*
X104854073Y-87544864D01*
X105394012Y-88084803D01*
X105394013Y-88084802D01*
X105498648Y-87953596D01*
X105498655Y-87953587D01*
X105648516Y-87715082D01*
X105770736Y-87461291D01*
X105770747Y-87461264D01*
X105863776Y-87195404D01*
X105926460Y-86920771D01*
X105958000Y-86640847D01*
X105958000Y-86359152D01*
X105926460Y-86079228D01*
X105863776Y-85804595D01*
X105770747Y-85538735D01*
X105770736Y-85538708D01*
X105648517Y-85284917D01*
X105498647Y-85046401D01*
X105498643Y-85046395D01*
X105394013Y-84915196D01*
X105394012Y-84915195D01*
X104854073Y-85455134D01*
X104768543Y-85343669D01*
X104606331Y-85181457D01*
X104494864Y-85095925D01*
X105034803Y-84555986D01*
X105034802Y-84555985D01*
X104903604Y-84451356D01*
X104903598Y-84451352D01*
X104714744Y-84332687D01*
X104667706Y-84279508D01*
X104656886Y-84209341D01*
X104685719Y-84144463D01*
X104745051Y-84105472D01*
X104781780Y-84100000D01*
X218138220Y-84100000D01*
X218206341Y-84120002D01*
G37*
%TD.AperFunction*%
%TA.AperFunction,Conductor*%
G36*
X222042117Y-147678679D02*
G01*
X222093333Y-147727846D01*
X222110000Y-147790475D01*
X222110000Y-148927218D01*
X222101578Y-148955898D01*
X222095849Y-148985233D01*
X222090959Y-148992062D01*
X222089998Y-148995339D01*
X222074974Y-149014395D01*
X221998079Y-149094639D01*
X221984746Y-149106698D01*
X221825497Y-149231292D01*
X221810585Y-149241331D01*
X221635220Y-149341999D01*
X221619031Y-149349814D01*
X221604633Y-149355537D01*
X221515183Y-149391090D01*
X221468645Y-149400000D01*
X220801780Y-149400000D01*
X220733659Y-149379998D01*
X220687166Y-149326342D01*
X220677062Y-149256068D01*
X220706556Y-149191488D01*
X220734744Y-149167313D01*
X220923587Y-149048655D01*
X220923596Y-149048648D01*
X221054802Y-148944013D01*
X221054803Y-148944012D01*
X220514864Y-148404073D01*
X220626331Y-148318543D01*
X220788543Y-148156331D01*
X220874073Y-148044864D01*
X221414012Y-148584803D01*
X221414013Y-148584802D01*
X221518648Y-148453596D01*
X221518655Y-148453587D01*
X221668516Y-148215082D01*
X221790736Y-147961291D01*
X221790747Y-147961264D01*
X221865071Y-147748860D01*
X221906449Y-147691168D01*
X221972449Y-147665006D01*
X222042117Y-147678679D01*
G37*
%TD.AperFunction*%
%TA.AperFunction,Conductor*%
G36*
X221797406Y-84104292D02*
G01*
X221811692Y-84103668D01*
X221844934Y-84117127D01*
X221864661Y-84128619D01*
X221880911Y-84139881D01*
X222042602Y-84271863D01*
X222056883Y-84285521D01*
X222077964Y-84309118D01*
X222108431Y-84373242D01*
X222110000Y-84393062D01*
X222110000Y-85709524D01*
X222089998Y-85777645D01*
X222036342Y-85824138D01*
X221966068Y-85834242D01*
X221901488Y-85804748D01*
X221865071Y-85751139D01*
X221790747Y-85538735D01*
X221790736Y-85538708D01*
X221668517Y-85284917D01*
X221518647Y-85046401D01*
X221518643Y-85046395D01*
X221414013Y-84915196D01*
X221414012Y-84915195D01*
X220874073Y-85455134D01*
X220788543Y-85343669D01*
X220626331Y-85181457D01*
X220514864Y-85095925D01*
X221054803Y-84555986D01*
X221054802Y-84555985D01*
X220923604Y-84451356D01*
X220923598Y-84451352D01*
X220734744Y-84332687D01*
X220687706Y-84279508D01*
X220676886Y-84209341D01*
X220705719Y-84144463D01*
X220765051Y-84105472D01*
X220801780Y-84100000D01*
X221781510Y-84100000D01*
X221797406Y-84104292D01*
G37*
%TD.AperFunction*%
%TA.AperFunction,Conductor*%
G36*
X102186341Y-84120002D02*
G01*
X102232834Y-84173658D01*
X102242938Y-84243932D01*
X102213444Y-84308512D01*
X102185256Y-84332687D01*
X101996401Y-84451352D01*
X101996395Y-84451356D01*
X101865196Y-84555985D01*
X101865196Y-84555987D01*
X102405135Y-85095926D01*
X102293669Y-85181457D01*
X102131457Y-85343669D01*
X102045926Y-85455135D01*
X101505987Y-84915196D01*
X101505985Y-84915196D01*
X101401356Y-85046395D01*
X101401352Y-85046401D01*
X101251482Y-85284917D01*
X101139522Y-85517406D01*
X101091944Y-85570103D01*
X101023430Y-85588711D01*
X100955731Y-85567323D01*
X100910342Y-85512730D01*
X100900000Y-85462737D01*
X100900000Y-84411180D01*
X100908784Y-84381263D01*
X100915412Y-84350795D01*
X100919226Y-84345698D01*
X100920002Y-84343059D01*
X100936897Y-84322092D01*
X101011669Y-84247320D01*
X101025241Y-84235561D01*
X101172756Y-84125132D01*
X101239276Y-84100321D01*
X101248265Y-84100000D01*
X102118220Y-84100000D01*
X102186341Y-84120002D01*
G37*
%TD.AperFunction*%
%TD*%
M02*
