%TF.GenerationSoftware,KiCad,Pcbnew,9.0.2+dfsg-1*%
%TF.CreationDate,2026-03-12T09:06:24-07:00*%
%TF.ProjectId,n64_pico_pak,6e36345f-7069-4636-9f5f-70616b2e6b69,A*%
%TF.SameCoordinates,Original*%
%TF.FileFunction,Other,User*%
%FSLAX46Y46*%
G04 Gerber Fmt 4.6, Leading zero omitted, Abs format (unit mm)*
G04 Created by KiCad (PCBNEW 9.0.2+dfsg-1) date 2026-03-12 09:06:24*
%MOMM*%
%LPD*%
G01*
G04 APERTURE LIST*
%ADD10C,0.050000*%
G04 APERTURE END LIST*
D10*
%TO.C,C5*%
X169570000Y-121575000D02*
X173330000Y-121575000D01*
X169570000Y-123535000D02*
X169570000Y-121575000D01*
X173330000Y-121575000D02*
X173330000Y-123535000D01*
X173330000Y-123535000D02*
X169570000Y-123535000D01*
%TO.C,D1*%
X122675000Y-138760000D02*
X122675000Y-143180000D01*
X122675000Y-143180000D02*
X127515000Y-143180000D01*
X127515000Y-138760000D02*
X122675000Y-138760000D01*
X127515000Y-143180000D02*
X127515000Y-138760000D01*
%TO.C,R1*%
X170650000Y-106000000D02*
X182910000Y-106000000D01*
X182910000Y-109000000D01*
X170650000Y-109000000D01*
X170650000Y-106000000D01*
%TO.C,C1*%
X170470000Y-88290000D02*
X172430000Y-88290000D01*
X170470000Y-92050000D02*
X170470000Y-88290000D01*
X172430000Y-88290000D02*
X172430000Y-92050000D01*
X172430000Y-92050000D02*
X170470000Y-92050000D01*
%TO.C,C3*%
X170840000Y-101255000D02*
X174600000Y-101255000D01*
X170840000Y-103215000D02*
X170840000Y-101255000D01*
X174600000Y-101255000D02*
X174600000Y-103215000D01*
X174600000Y-103215000D02*
X170840000Y-103215000D01*
%TO.C,A1*%
X152587500Y-130540000D02*
X100287500Y-130540000D01*
X100287500Y-123500000D01*
X98737500Y-123500000D01*
X98737500Y-114500000D01*
X100287500Y-114500000D01*
X100287500Y-107460000D01*
X152587500Y-107460000D01*
X152587500Y-130540000D01*
%TO.C,U1*%
X165457500Y-122325000D02*
X166457500Y-122325000D01*
X165457500Y-125325000D02*
X165457500Y-122325000D01*
X166457500Y-122125000D02*
X168557500Y-122125000D01*
X166457500Y-122325000D02*
X166457500Y-122125000D01*
X166457500Y-125325000D02*
X165457500Y-125325000D01*
X166457500Y-125525000D02*
X166457500Y-125325000D01*
X168557500Y-122125000D02*
X168557500Y-122325000D01*
X168557500Y-122325000D02*
X169557500Y-122325000D01*
X168557500Y-125325000D02*
X168557500Y-125525000D01*
X168557500Y-125525000D02*
X166457500Y-125525000D01*
X169557500Y-122325000D02*
X169557500Y-125325000D01*
X169557500Y-125325000D02*
X168557500Y-125325000D01*
%TO.C,C2*%
X150785000Y-88290000D02*
X152745000Y-88290000D01*
X150785000Y-92050000D02*
X150785000Y-88290000D01*
X152745000Y-88290000D02*
X152745000Y-92050000D01*
X152745000Y-92050000D02*
X150785000Y-92050000D01*
%TO.C,J1*%
X130270000Y-92060000D02*
X193270000Y-92060000D01*
X130270000Y-101060000D02*
X130270000Y-92060000D01*
X130270000Y-101060000D02*
X193270000Y-101060000D01*
X193270000Y-101060000D02*
X193270000Y-92060000D01*
%TO.C,R2*%
X109440000Y-139470000D02*
X121700000Y-139470000D01*
X121700000Y-142470000D01*
X109440000Y-142470000D01*
X109440000Y-139470000D01*
%TO.C,C6*%
X162850000Y-120040000D02*
X164810000Y-120040000D01*
X162850000Y-123800000D02*
X162850000Y-120040000D01*
X164810000Y-120040000D02*
X164810000Y-123800000D01*
X164810000Y-123800000D02*
X162850000Y-123800000D01*
%TD*%
M02*
