%TF.GenerationSoftware,KiCad,Pcbnew,9.0.2+dfsg-1*%
%TF.CreationDate,2026-03-12T09:06:24-07:00*%
%TF.ProjectId,n64_pico_pak,6e36345f-7069-4636-9f5f-70616b2e6b69,A*%
%TF.SameCoordinates,Original*%
%TF.FileFunction,OtherDrawing,Comment*%
%FSLAX46Y46*%
G04 Gerber Fmt 4.6, Leading zero omitted, Abs format (unit mm)*
G04 Created by KiCad (PCBNEW 9.0.2+dfsg-1) date 2026-03-12 09:06:24*
%MOMM*%
%LPD*%
G01*
G04 APERTURE LIST*
%ADD10C,0.120000*%
%ADD11C,0.050000*%
G04 APERTURE END LIST*
D10*
%TO.C,A1*%
X103587500Y-113300000D02*
G75*
G02*
X101487500Y-113300000I-1050000J0D01*
G01*
X101487500Y-113300000D02*
G75*
G02*
X103587500Y-113300000I1050000J0D01*
G01*
X103587500Y-124700000D02*
G75*
G02*
X101487500Y-124700000I-1050000J0D01*
G01*
X101487500Y-124700000D02*
G75*
G02*
X103587500Y-124700000I1050000J0D01*
G01*
X150587500Y-113300000D02*
G75*
G02*
X148487500Y-113300000I-1050000J0D01*
G01*
X148487500Y-113300000D02*
G75*
G02*
X150587500Y-113300000I1050000J0D01*
G01*
X150587500Y-124700000D02*
G75*
G02*
X148487500Y-124700000I-1050000J0D01*
G01*
X148487500Y-124700000D02*
G75*
G02*
X150587500Y-124700000I1050000J0D01*
G01*
D11*
X125567500Y-108500000D02*
X125567500Y-109050000D01*
X125567500Y-109250000D02*
X125567500Y-109800000D01*
X125567500Y-110000000D02*
X125567500Y-110550000D01*
X125567500Y-110750000D02*
X125567500Y-111300000D01*
X125567500Y-111500000D02*
X125567500Y-112050000D01*
X125567500Y-112250000D02*
X125567500Y-112800000D01*
X125567500Y-113000000D02*
X125567500Y-113550000D01*
X125567500Y-113750000D02*
X125567500Y-114300000D01*
X125567500Y-114500000D02*
X125567500Y-115050000D01*
X125567500Y-115250000D02*
X125567500Y-115800000D01*
X125567500Y-116000000D02*
X125567500Y-116550000D01*
X125567500Y-116750000D02*
X125567500Y-116880000D01*
X125567500Y-116880000D02*
X125337500Y-117100000D01*
X125337500Y-117100000D02*
X124787500Y-117100000D01*
X124587500Y-117100000D02*
X124437500Y-117100000D01*
X124437500Y-117100000D02*
X124048591Y-116711091D01*
X123967500Y-116630000D02*
X123967500Y-116080000D01*
X123967500Y-115880000D02*
X123967500Y-115330000D01*
X123967500Y-115130000D02*
X123967500Y-114580000D01*
X123967500Y-114380000D02*
X123967500Y-113830000D01*
X123967500Y-113630000D02*
X123967500Y-113350000D01*
X123967500Y-113350000D02*
X123737501Y-113100000D01*
X123737500Y-113100000D02*
X123187500Y-113100000D01*
X122987500Y-113100000D02*
X122837500Y-113100000D01*
X122837500Y-113100000D02*
X122448591Y-113488909D01*
X122307170Y-113630330D02*
X122137500Y-113800000D01*
X122137500Y-113800000D02*
X122137500Y-114350000D01*
X122137500Y-114450000D02*
X121887500Y-114700000D01*
X121887500Y-114700000D02*
X121337500Y-114700000D01*
X121137500Y-114700000D02*
X120587500Y-114700000D01*
X120387500Y-114700000D02*
X119837500Y-114700000D01*
X119637500Y-114700000D02*
X119087500Y-114700000D01*
X118887500Y-114700000D02*
X118337500Y-114700000D01*
X118137500Y-114700000D02*
X117587500Y-114700000D01*
X117387500Y-114700000D02*
X116837500Y-114700000D01*
X116637500Y-114700000D02*
X116087500Y-114700000D01*
X115887500Y-114700000D02*
X115337500Y-114700000D01*
X115137500Y-114700000D02*
X114987500Y-114700000D01*
X114987500Y-114700000D02*
X114598591Y-114311091D01*
X114457170Y-114169670D02*
X114437500Y-114150000D01*
X114437500Y-114150000D02*
X114437500Y-113600000D01*
X114437500Y-113400000D02*
X114437500Y-112850000D01*
X114437500Y-112650000D02*
X114437500Y-112100000D01*
X114437500Y-111900000D02*
X114437500Y-111850000D01*
X114437500Y-111850000D02*
X114048591Y-111461091D01*
X113907170Y-111319670D02*
X113807500Y-111220000D01*
X113807500Y-111220000D02*
X113807500Y-110670000D01*
X113807500Y-110470000D02*
X113807500Y-109920000D01*
X113807500Y-109720000D02*
X113807500Y-109170000D01*
X113807500Y-108970000D02*
X113807500Y-108500000D01*
X113807500Y-108500000D02*
X114357500Y-108500000D01*
X114557500Y-108500000D02*
X115107500Y-108500000D01*
X115307500Y-108500000D02*
X115857500Y-108500000D01*
X116057500Y-108500000D02*
X116607500Y-108500000D01*
X116807500Y-108500000D02*
X117357500Y-108500000D01*
X117557500Y-108500000D02*
X118107500Y-108500000D01*
X118307500Y-108500000D02*
X118857500Y-108500000D01*
X119057500Y-108500000D02*
X119607500Y-108500000D01*
X119807500Y-108500000D02*
X120357500Y-108500000D01*
X120557500Y-108500000D02*
X121107500Y-108500000D01*
X121307500Y-108500000D02*
X121857500Y-108500000D01*
X122057500Y-108500000D02*
X122607500Y-108500000D01*
X122807500Y-108500000D02*
X123357500Y-108500000D01*
X123557500Y-108500000D02*
X124107500Y-108500000D01*
X124307500Y-108500000D02*
X124857500Y-108500000D01*
X125057500Y-108500000D02*
X125567500Y-108500000D01*
%TD*%
M02*
