%TF.GenerationSoftware,KiCad,Pcbnew,9.0.2+dfsg-1*%
%TF.CreationDate,2026-03-12T09:06:24-07:00*%
%TF.ProjectId,n64_pico_pak,6e36345f-7069-4636-9f5f-70616b2e6b69,A*%
%TF.SameCoordinates,Original*%
%TF.FileFunction,Soldermask,Bot*%
%TF.FilePolarity,Negative*%
%FSLAX46Y46*%
G04 Gerber Fmt 4.6, Leading zero omitted, Abs format (unit mm)*
G04 Created by KiCad (PCBNEW 9.0.2+dfsg-1) date 2026-03-12 09:06:24*
%MOMM*%
%LPD*%
G01*
G04 APERTURE LIST*
%ADD10C,4.000000*%
%ADD11C,2.800000*%
%ADD12R,1.800000X1.800000*%
%ADD13C,1.800000*%
%ADD14C,1.600000*%
%ADD15C,1.524000*%
G04 APERTURE END LIST*
D10*
%TO.C,*%
X219470000Y-147000000D03*
%TD*%
D11*
%TO.C,J2*%
X208280000Y-124900000D03*
X208280000Y-128900000D03*
X208280000Y-132900000D03*
%TD*%
D10*
%TO.C,*%
X103450000Y-86500000D03*
%TD*%
D12*
%TO.C,D1*%
X123825000Y-140970000D03*
D13*
X126365000Y-140970000D03*
%TD*%
D14*
%TO.C,R1*%
X171700000Y-107500000D03*
X181860000Y-107500000D03*
%TD*%
D10*
%TO.C,*%
X103450000Y-141100000D03*
%TD*%
D15*
%TO.C,J1*%
X131770000Y-99060000D03*
X134270000Y-99060000D03*
X136770000Y-99060000D03*
X139270000Y-99060000D03*
X141770000Y-99060000D03*
X144270000Y-99060000D03*
X146770000Y-99060000D03*
X149270000Y-99060000D03*
X151770000Y-99060000D03*
X154270000Y-99060000D03*
X156770000Y-99060000D03*
X159270000Y-99060000D03*
X161770000Y-99060000D03*
X164270000Y-99060000D03*
X166770000Y-99060000D03*
X169270000Y-99060000D03*
X171770000Y-99060000D03*
X174270000Y-99060000D03*
X176770000Y-99060000D03*
X179270000Y-99060000D03*
X181770000Y-99060000D03*
X184270000Y-99060000D03*
X186770000Y-99060000D03*
X189270000Y-99060000D03*
X191770000Y-99060000D03*
X131770000Y-94060000D03*
X134270000Y-94060000D03*
X136770000Y-94060000D03*
X139270000Y-94060000D03*
X141770000Y-94060000D03*
X144270000Y-94060000D03*
X146770000Y-94060000D03*
X149270000Y-94060000D03*
X151770000Y-94060000D03*
X154270000Y-94060000D03*
X156770000Y-94060000D03*
X159270000Y-94060000D03*
X161770000Y-94060000D03*
X164270000Y-94060000D03*
X166770000Y-94060000D03*
X169270000Y-94060000D03*
X171770000Y-94060000D03*
X174270000Y-94060000D03*
X176770000Y-94060000D03*
X179270000Y-94060000D03*
X181770000Y-94060000D03*
X184270000Y-94060000D03*
X186770000Y-94060000D03*
X189270000Y-94060000D03*
X191770000Y-94060000D03*
%TD*%
D10*
%TO.C,*%
X219470000Y-86500000D03*
%TD*%
D14*
%TO.C,R2*%
X110490000Y-140970000D03*
X120650000Y-140970000D03*
%TD*%
M02*
