%TF.GenerationSoftware,KiCad,Pcbnew,9.0.2+dfsg-1*%
%TF.CreationDate,2026-03-12T09:06:24-07:00*%
%TF.ProjectId,n64_pico_pak,6e36345f-7069-4636-9f5f-70616b2e6b69,A*%
%TF.SameCoordinates,Original*%
%TF.FileFunction,Other,Comment*%
%FSLAX46Y46*%
G04 Gerber Fmt 4.6, Leading zero omitted, Abs format (unit mm)*
G04 Created by KiCad (PCBNEW 9.0.2+dfsg-1) date 2026-03-12 09:06:24*
%MOMM*%
%LPD*%
G01*
G04 APERTURE LIST*
%ADD10C,0.050000*%
%ADD11C,0.075000*%
G04 APERTURE END LIST*
D10*
X121490791Y-118277749D02*
X121490791Y-118214263D01*
X121490791Y-118214263D02*
X121506662Y-118182520D01*
X121506662Y-118182520D02*
X121538405Y-118150777D01*
X121538405Y-118150777D02*
X121601891Y-118134906D01*
X121601891Y-118134906D02*
X121712991Y-118134906D01*
X121712991Y-118134906D02*
X121776477Y-118150777D01*
X121776477Y-118150777D02*
X121808220Y-118182520D01*
X121808220Y-118182520D02*
X121824091Y-118214263D01*
X121824091Y-118214263D02*
X121824091Y-118277749D01*
X121824091Y-118277749D02*
X121808220Y-118309492D01*
X121808220Y-118309492D02*
X121776477Y-118341234D01*
X121776477Y-118341234D02*
X121712991Y-118357106D01*
X121712991Y-118357106D02*
X121601891Y-118357106D01*
X121601891Y-118357106D02*
X121538405Y-118341234D01*
X121538405Y-118341234D02*
X121506662Y-118309492D01*
X121506662Y-118309492D02*
X121490791Y-118277749D01*
X121601891Y-117849221D02*
X121824091Y-117849221D01*
X121601891Y-117992063D02*
X121776477Y-117992063D01*
X121776477Y-117992063D02*
X121808220Y-117976192D01*
X121808220Y-117976192D02*
X121824091Y-117944449D01*
X121824091Y-117944449D02*
X121824091Y-117896835D01*
X121824091Y-117896835D02*
X121808220Y-117865092D01*
X121808220Y-117865092D02*
X121792348Y-117849221D01*
X121601891Y-117738121D02*
X121601891Y-117611149D01*
X121490791Y-117690506D02*
X121776477Y-117690506D01*
X121776477Y-117690506D02*
X121808220Y-117674635D01*
X121808220Y-117674635D02*
X121824091Y-117642892D01*
X121824091Y-117642892D02*
X121824091Y-117611149D01*
D11*
X120536546Y-113835447D02*
X120298451Y-113835447D01*
X120584165Y-113692590D02*
X120417499Y-114192590D01*
X120417499Y-114192590D02*
X120250832Y-113692590D01*
X119822261Y-114168780D02*
X119869880Y-114192590D01*
X119869880Y-114192590D02*
X119941309Y-114192590D01*
X119941309Y-114192590D02*
X120012737Y-114168780D01*
X120012737Y-114168780D02*
X120060356Y-114121161D01*
X120060356Y-114121161D02*
X120084166Y-114073542D01*
X120084166Y-114073542D02*
X120107975Y-113978304D01*
X120107975Y-113978304D02*
X120107975Y-113906876D01*
X120107975Y-113906876D02*
X120084166Y-113811638D01*
X120084166Y-113811638D02*
X120060356Y-113764019D01*
X120060356Y-113764019D02*
X120012737Y-113716400D01*
X120012737Y-113716400D02*
X119941309Y-113692590D01*
X119941309Y-113692590D02*
X119893690Y-113692590D01*
X119893690Y-113692590D02*
X119822261Y-113716400D01*
X119822261Y-113716400D02*
X119798452Y-113740209D01*
X119798452Y-113740209D02*
X119798452Y-113906876D01*
X119798452Y-113906876D02*
X119893690Y-113906876D01*
X119584166Y-113692590D02*
X119584166Y-114192590D01*
X119584166Y-114192590D02*
X119298452Y-113692590D01*
X119298452Y-113692590D02*
X119298452Y-114192590D01*
X119060356Y-113692590D02*
X119060356Y-114192590D01*
X119060356Y-114192590D02*
X118941308Y-114192590D01*
X118941308Y-114192590D02*
X118869880Y-114168780D01*
X118869880Y-114168780D02*
X118822261Y-114121161D01*
X118822261Y-114121161D02*
X118798451Y-114073542D01*
X118798451Y-114073542D02*
X118774642Y-113978304D01*
X118774642Y-113978304D02*
X118774642Y-113906876D01*
X118774642Y-113906876D02*
X118798451Y-113811638D01*
X118798451Y-113811638D02*
X118822261Y-113764019D01*
X118822261Y-113764019D02*
X118869880Y-113716400D01*
X118869880Y-113716400D02*
X118941308Y-113692590D01*
X118941308Y-113692590D02*
X119060356Y-113692590D01*
X118179404Y-113692590D02*
X118179404Y-114192590D01*
X118179404Y-114192590D02*
X117988928Y-114192590D01*
X117988928Y-114192590D02*
X117941309Y-114168780D01*
X117941309Y-114168780D02*
X117917499Y-114144971D01*
X117917499Y-114144971D02*
X117893690Y-114097352D01*
X117893690Y-114097352D02*
X117893690Y-114025923D01*
X117893690Y-114025923D02*
X117917499Y-113978304D01*
X117917499Y-113978304D02*
X117941309Y-113954495D01*
X117941309Y-113954495D02*
X117988928Y-113930685D01*
X117988928Y-113930685D02*
X118179404Y-113930685D01*
X117607975Y-113692590D02*
X117655594Y-113716400D01*
X117655594Y-113716400D02*
X117679404Y-113764019D01*
X117679404Y-113764019D02*
X117679404Y-114192590D01*
X117203213Y-113692590D02*
X117203213Y-113954495D01*
X117203213Y-113954495D02*
X117227023Y-114002114D01*
X117227023Y-114002114D02*
X117274642Y-114025923D01*
X117274642Y-114025923D02*
X117369880Y-114025923D01*
X117369880Y-114025923D02*
X117417499Y-114002114D01*
X117203213Y-113716400D02*
X117250832Y-113692590D01*
X117250832Y-113692590D02*
X117369880Y-113692590D01*
X117369880Y-113692590D02*
X117417499Y-113716400D01*
X117417499Y-113716400D02*
X117441308Y-113764019D01*
X117441308Y-113764019D02*
X117441308Y-113811638D01*
X117441308Y-113811638D02*
X117417499Y-113859257D01*
X117417499Y-113859257D02*
X117369880Y-113883066D01*
X117369880Y-113883066D02*
X117250832Y-113883066D01*
X117250832Y-113883066D02*
X117203213Y-113906876D01*
X116965118Y-114025923D02*
X116965118Y-113692590D01*
X116965118Y-113978304D02*
X116941308Y-114002114D01*
X116941308Y-114002114D02*
X116893689Y-114025923D01*
X116893689Y-114025923D02*
X116822261Y-114025923D01*
X116822261Y-114025923D02*
X116774642Y-114002114D01*
X116774642Y-114002114D02*
X116750832Y-113954495D01*
X116750832Y-113954495D02*
X116750832Y-113692590D01*
X116322261Y-113716400D02*
X116369880Y-113692590D01*
X116369880Y-113692590D02*
X116465118Y-113692590D01*
X116465118Y-113692590D02*
X116512737Y-113716400D01*
X116512737Y-113716400D02*
X116536546Y-113764019D01*
X116536546Y-113764019D02*
X116536546Y-113954495D01*
X116536546Y-113954495D02*
X116512737Y-114002114D01*
X116512737Y-114002114D02*
X116465118Y-114025923D01*
X116465118Y-114025923D02*
X116369880Y-114025923D01*
X116369880Y-114025923D02*
X116322261Y-114002114D01*
X116322261Y-114002114D02*
X116298451Y-113954495D01*
X116298451Y-113954495D02*
X116298451Y-113906876D01*
X116298451Y-113906876D02*
X116536546Y-113859257D01*
D10*
X121189091Y-118523756D02*
X120855791Y-118523756D01*
X121189091Y-118333299D02*
X120998634Y-118476142D01*
X120855791Y-118333299D02*
X121046248Y-118523756D01*
X121173220Y-118063485D02*
X121189091Y-118095228D01*
X121189091Y-118095228D02*
X121189091Y-118158714D01*
X121189091Y-118158714D02*
X121173220Y-118190456D01*
X121173220Y-118190456D02*
X121141477Y-118206328D01*
X121141477Y-118206328D02*
X121014505Y-118206328D01*
X121014505Y-118206328D02*
X120982762Y-118190456D01*
X120982762Y-118190456D02*
X120966891Y-118158714D01*
X120966891Y-118158714D02*
X120966891Y-118095228D01*
X120966891Y-118095228D02*
X120982762Y-118063485D01*
X120982762Y-118063485D02*
X121014505Y-118047614D01*
X121014505Y-118047614D02*
X121046248Y-118047614D01*
X121046248Y-118047614D02*
X121077991Y-118206328D01*
X121173220Y-117777799D02*
X121189091Y-117809542D01*
X121189091Y-117809542D02*
X121189091Y-117873028D01*
X121189091Y-117873028D02*
X121173220Y-117904770D01*
X121173220Y-117904770D02*
X121141477Y-117920642D01*
X121141477Y-117920642D02*
X121014505Y-117920642D01*
X121014505Y-117920642D02*
X120982762Y-117904770D01*
X120982762Y-117904770D02*
X120966891Y-117873028D01*
X120966891Y-117873028D02*
X120966891Y-117809542D01*
X120966891Y-117809542D02*
X120982762Y-117777799D01*
X120982762Y-117777799D02*
X121014505Y-117761928D01*
X121014505Y-117761928D02*
X121046248Y-117761928D01*
X121046248Y-117761928D02*
X121077991Y-117920642D01*
X120966891Y-117619084D02*
X121300191Y-117619084D01*
X120982762Y-117619084D02*
X120966891Y-117587342D01*
X120966891Y-117587342D02*
X120966891Y-117523856D01*
X120966891Y-117523856D02*
X120982762Y-117492113D01*
X120982762Y-117492113D02*
X120998634Y-117476242D01*
X120998634Y-117476242D02*
X121030377Y-117460370D01*
X121030377Y-117460370D02*
X121125605Y-117460370D01*
X121125605Y-117460370D02*
X121157348Y-117476242D01*
X121157348Y-117476242D02*
X121173220Y-117492113D01*
X121173220Y-117492113D02*
X121189091Y-117523856D01*
X121189091Y-117523856D02*
X121189091Y-117587342D01*
X121189091Y-117587342D02*
X121173220Y-117619084D01*
X120522348Y-118595178D02*
X120538220Y-118611050D01*
X120538220Y-118611050D02*
X120554091Y-118658664D01*
X120554091Y-118658664D02*
X120554091Y-118690407D01*
X120554091Y-118690407D02*
X120538220Y-118738021D01*
X120538220Y-118738021D02*
X120506477Y-118769764D01*
X120506477Y-118769764D02*
X120474734Y-118785635D01*
X120474734Y-118785635D02*
X120411248Y-118801507D01*
X120411248Y-118801507D02*
X120363634Y-118801507D01*
X120363634Y-118801507D02*
X120300148Y-118785635D01*
X120300148Y-118785635D02*
X120268405Y-118769764D01*
X120268405Y-118769764D02*
X120236662Y-118738021D01*
X120236662Y-118738021D02*
X120220791Y-118690407D01*
X120220791Y-118690407D02*
X120220791Y-118658664D01*
X120220791Y-118658664D02*
X120236662Y-118611050D01*
X120236662Y-118611050D02*
X120252534Y-118595178D01*
X120554091Y-118404721D02*
X120538220Y-118436464D01*
X120538220Y-118436464D02*
X120522348Y-118452335D01*
X120522348Y-118452335D02*
X120490605Y-118468207D01*
X120490605Y-118468207D02*
X120395377Y-118468207D01*
X120395377Y-118468207D02*
X120363634Y-118452335D01*
X120363634Y-118452335D02*
X120347762Y-118436464D01*
X120347762Y-118436464D02*
X120331891Y-118404721D01*
X120331891Y-118404721D02*
X120331891Y-118357107D01*
X120331891Y-118357107D02*
X120347762Y-118325364D01*
X120347762Y-118325364D02*
X120363634Y-118309493D01*
X120363634Y-118309493D02*
X120395377Y-118293621D01*
X120395377Y-118293621D02*
X120490605Y-118293621D01*
X120490605Y-118293621D02*
X120522348Y-118309493D01*
X120522348Y-118309493D02*
X120538220Y-118325364D01*
X120538220Y-118325364D02*
X120554091Y-118357107D01*
X120554091Y-118357107D02*
X120554091Y-118404721D01*
X120331891Y-118150778D02*
X120665191Y-118150778D01*
X120347762Y-118150778D02*
X120331891Y-118119036D01*
X120331891Y-118119036D02*
X120331891Y-118055550D01*
X120331891Y-118055550D02*
X120347762Y-118023807D01*
X120347762Y-118023807D02*
X120363634Y-118007936D01*
X120363634Y-118007936D02*
X120395377Y-117992064D01*
X120395377Y-117992064D02*
X120490605Y-117992064D01*
X120490605Y-117992064D02*
X120522348Y-118007936D01*
X120522348Y-118007936D02*
X120538220Y-118023807D01*
X120538220Y-118023807D02*
X120554091Y-118055550D01*
X120554091Y-118055550D02*
X120554091Y-118119036D01*
X120554091Y-118119036D02*
X120538220Y-118150778D01*
X120331891Y-117849221D02*
X120665191Y-117849221D01*
X120347762Y-117849221D02*
X120331891Y-117817479D01*
X120331891Y-117817479D02*
X120331891Y-117753993D01*
X120331891Y-117753993D02*
X120347762Y-117722250D01*
X120347762Y-117722250D02*
X120363634Y-117706379D01*
X120363634Y-117706379D02*
X120395377Y-117690507D01*
X120395377Y-117690507D02*
X120490605Y-117690507D01*
X120490605Y-117690507D02*
X120522348Y-117706379D01*
X120522348Y-117706379D02*
X120538220Y-117722250D01*
X120538220Y-117722250D02*
X120554091Y-117753993D01*
X120554091Y-117753993D02*
X120554091Y-117817479D01*
X120554091Y-117817479D02*
X120538220Y-117849221D01*
X120538220Y-117420693D02*
X120554091Y-117452436D01*
X120554091Y-117452436D02*
X120554091Y-117515922D01*
X120554091Y-117515922D02*
X120538220Y-117547664D01*
X120538220Y-117547664D02*
X120506477Y-117563536D01*
X120506477Y-117563536D02*
X120379505Y-117563536D01*
X120379505Y-117563536D02*
X120347762Y-117547664D01*
X120347762Y-117547664D02*
X120331891Y-117515922D01*
X120331891Y-117515922D02*
X120331891Y-117452436D01*
X120331891Y-117452436D02*
X120347762Y-117420693D01*
X120347762Y-117420693D02*
X120379505Y-117404822D01*
X120379505Y-117404822D02*
X120411248Y-117404822D01*
X120411248Y-117404822D02*
X120442991Y-117563536D01*
X120554091Y-117261978D02*
X120331891Y-117261978D01*
X120395377Y-117261978D02*
X120363634Y-117246107D01*
X120363634Y-117246107D02*
X120347762Y-117230236D01*
X120347762Y-117230236D02*
X120331891Y-117198493D01*
X120331891Y-117198493D02*
X120331891Y-117166750D01*
M02*
